<mxfile host="Electron" modified="2023-04-17T07:42:39.072Z" agent="Mozilla/5.0 (Macintosh; Intel Mac OS X 10_15_7) AppleWebKit/537.36 (KHTML, like Gecko) draw.io/21.1.2 Chrome/106.0.5249.199 Electron/21.4.3 Safari/537.36" etag="ekoelHqzO1T-Z9uScDMO" version="21.1.2" type="device">
  <diagram name="overview" id="2miSlS73-NYh6yFOvrS8">
    <mxGraphModel dx="2058" dy="517" grid="1" gridSize="10" guides="1" tooltips="1" connect="1" arrows="1" fold="1" page="1" pageScale="1" pageWidth="827" pageHeight="1169" math="0" shadow="0">
      <root>
        <mxCell id="0" />
        <mxCell id="1" parent="0" />
        <mxCell id="t-lk_YIIwEsfysXy30gr-1" value="" style="rounded=0;whiteSpace=wrap;html=1;fillColor=#dae8fc;strokeColor=none;" parent="1" vertex="1">
          <mxGeometry x="60" y="160" width="580" height="640" as="geometry" />
        </mxCell>
        <mxCell id="t-lk_YIIwEsfysXy30gr-2" value="" style="rounded=0;whiteSpace=wrap;html=1;fillColor=#f5f5f5;fontColor=#333333;strokeColor=none;" parent="1" vertex="1">
          <mxGeometry x="100" y="270" width="500" height="107" as="geometry" />
        </mxCell>
        <mxCell id="t-lk_YIIwEsfysXy30gr-3" value="" style="shape=image;verticalLabelPosition=bottom;verticalAlign=top;imageAspect=0;aspect=fixed;image=data:image/svg+xml,PHN2ZyB4bWxucz0iaHR0cDovL3d3dy53My5vcmcvMjAwMC9zdmciIGlkPSJhMTYwNmE1Mi1mYjE0LTQ2MzctODdkZS00ZDUyNGJiYTE4MjkiIHdpZHRoPSIxOCIgaGVpZ2h0PSIxOCIgdmlld0JveD0iMCAwIDE4IDE4Ij4mI3hhOyAgICA8ZGVmcz4mI3hhOyAgICAgICAgPGxpbmVhckdyYWRpZW50IGlkPSJmMDIwZmI3ZS0yMjQzLTQ1MDEtODE1My01ZDY5YmQzYzM0ZjciIHgxPSI5Ljg4IiB5MT0iOC41OSIgeDI9IjExLjUyIiB5Mj0iMTAuMjMiIGdyYWRpZW50VHJhbnNmb3JtPSJ0cmFuc2xhdGUoMi4wMyAtMC40KSByb3RhdGUoLTAuMDgpIiBncmFkaWVudFVuaXRzPSJ1c2VyU3BhY2VPblVzZSI+JiN4YTsgICAgICAgICAgICA8c3RvcCBvZmZzZXQ9IjAiIHN0b3AtY29sb3I9IiM4NmQ2MzMiLz4mI3hhOzxzdG9wIG9mZnNldD0iMSIgc3RvcC1jb2xvcj0iIzVlOTYyNCIvPiYjeGE7ICAgICAgICA8L2xpbmVhckdyYWRpZW50PiYjeGE7ICAgICAgICA8bGluZWFyR3JhZGllbnQgaWQ9ImIzYzJiYzk0LThjN2MtNDhhMi05NzE5LTZlZTg5OWE0M2E5NyIgeDE9IjYuMTgiIHkxPSI4LjU5IiB4Mj0iNy44MSIgeTI9IjEwLjIzIiBncmFkaWVudFVuaXRzPSJ1c2VyU3BhY2VPblVzZSI+JiN4YTsgICAgICAgICAgICAgICAgICAgIDxzdG9wIG9mZnNldD0iMCIgc3RvcC1jb2xvcj0iIzg2ZDYzMyIvPiYjeGE7PHN0b3Agb2Zmc2V0PSIxIiBzdG9wLWNvbG9yPSIjNWU5NjI0Ii8+JiN4YTsgICAgICAgIDwvbGluZWFyR3JhZGllbnQ+JiN4YTsgICAgICAgIDxsaW5lYXJHcmFkaWVudCBpZD0iZTkwMGMzNWQtMDk1OC00ZDRmLWIyOGYtMzAyZWVhYWY1MmY1IiB4MT0iMi40OCIgeTE9IjguNTkiIHgyPSI0LjExIiB5Mj0iMTAuMjMiIGdyYWRpZW50VW5pdHM9InVzZXJTcGFjZU9uVXNlIj4mI3hhOyAgICAgICAgICAgICAgICAgICAgPHN0b3Agb2Zmc2V0PSIwIiBzdG9wLWNvbG9yPSIjODZkNjMzIi8+JiN4YTs8c3RvcCBvZmZzZXQ9IjEiIHN0b3AtY29sb3I9IiM1ZTk2MjQiLz4mI3hhOyAgICAgICAgPC9saW5lYXJHcmFkaWVudD4mI3hhOyAgICA8L2RlZnM+JiN4YTsgICAgPHRpdGxlPkljb24tbmV0d29ya2luZy02MTwvdGl0bGU+JiN4YTsgICAgPGNpcmNsZSBjeD0iMTIuNzQiIGN5PSI4Ljk5IiByPSIxLjE2IiBmaWxsPSJ1cmwoI2YwMjBmYjdlLTIyNDMtNDUwMS04MTUzLTVkNjliZDNjMzRmNykiLz4mI3hhOyAgICA8Y2lyY2xlIGN4PSI5LjA0IiBjeT0iOSIgcj0iMS4xNiIgZmlsbD0idXJsKCNiM2MyYmM5NC04YzdjLTQ4YTItOTcxOS02ZWU4OTlhNDNhOTcpIi8+JiN4YTsgICAgPGNpcmNsZSBjeD0iNS4zNCIgY3k9IjkiIHI9IjEuMTYiIGZpbGw9InVybCgjZTkwMGMzNWQtMDk1OC00ZDRmLWIyOGYtMzAyZWVhYWY1MmY1KSIvPiYjeGE7ICAgIDxwYXRoIGQ9Ik0yLjYxLDcuMjhoLjk0YS4zLjMsMCwwLDEsLjMuM3Y2Ljk0YS42LjYsMCwwLDEtLjYuNkgyLjMxYTAsMCwwLDAsMSwwLDBWNy41OGEuMy4zLDAsMCwxLC4zLS4zWiIgdHJhbnNmb3JtPSJ0cmFuc2xhdGUoMTMuMTggMTYuOTMpIHJvdGF0ZSgxMzQuOTIpIiBmaWxsPSIjNTBlNmZmIi8+JiN4YTsgICAgPHBhdGggZD0iTTIuNTYsMi45MUgzLjVhLjMuMywwLDAsMSwuMy4zdjcuNDNhMCwwLDAsMCwxLDAsMEgyLjg2YS42LjYsMCwwLDEtLjYtLjZWMy4yMWEuMy4zLDAsMCwxLC4zLS4zWiIgdHJhbnNmb3JtPSJ0cmFuc2xhdGUoNS42NiAtMC4xNikgcm90YXRlKDQ0LjkyKSIgZmlsbD0iIzE0OTBkZiIvPiYjeGE7ICAgIDxwYXRoIGQ9Ik0xNC4xNSw3LjI4aC45NGEuNi42LDAsMCwxLC42LjZ2Ni45NGEuMy4zLDAsMCwxLS4zLjNoLS45NGEuMy4zLDAsMCwxLS4zLS4zVjcuMjhhMCwwLDAsMCwxLDAsMFoiIHRyYW5zZm9ybT0idHJhbnNsYXRlKDEyLjMyIC03LjI4KSByb3RhdGUoNDUuMDgpIiBmaWxsPSIjNTBlNmZmIi8+JiN4YTsgICAgPHBhdGggZD0iTTE0LjgxLDIuOTFoLjk0YTAsMCwwLDAsMSwwLDB2Ny40M2EuMy4zLDAsMCwxLS4zLjNIMTQuNWEuMy4zLDAsMCwxLS4zLS4zVjMuNTFhLjYuNiwwLDAsMSwuNi0uNloiIHRyYW5zZm9ybT0idHJhbnNsYXRlKDMwLjM2IDAuOTkpIHJvdGF0ZSgxMzUuMDgpIiBmaWxsPSIjMTQ5MGRmIi8+JiN4YTs8L3N2Zz4=" parent="1" vertex="1">
          <mxGeometry x="80" y="251" width="40" height="40" as="geometry" />
        </mxCell>
        <mxCell id="t-lk_YIIwEsfysXy30gr-5" value="&lt;font style=&quot;font-size: 10px;&quot;&gt;GatewaySubnet&lt;/font&gt;" style="rounded=0;whiteSpace=wrap;html=1;fillColor=none;strokeColor=#B3B3B3;dashed=1;" parent="1" vertex="1">
          <mxGeometry x="130" y="304" width="120" height="60" as="geometry" />
        </mxCell>
        <mxCell id="t-lk_YIIwEsfysXy30gr-7" value="&lt;font style=&quot;font-size: 10px;&quot;&gt;snet-dns-inbound-westeu&lt;br&gt;(delegated)&lt;br&gt;&lt;/font&gt;" style="rounded=0;whiteSpace=wrap;html=1;fillColor=none;strokeColor=#B3B3B3;dashed=1;" parent="1" vertex="1">
          <mxGeometry x="290" y="304" width="120" height="60" as="geometry" />
        </mxCell>
        <mxCell id="t-lk_YIIwEsfysXy30gr-12" value="" style="endArrow=none;dashed=1;html=1;rounded=0;exitX=0.5;exitY=1;exitDx=0;exitDy=0;entryX=0.75;entryY=0;entryDx=0;entryDy=0;fillColor=#0050ef;strokeColor=#001DBC;" parent="1" source="EMYNUx44aLwSDeEjnDvy-4" target="t-lk_YIIwEsfysXy30gr-2" edge="1">
          <mxGeometry width="50" height="50" relative="1" as="geometry">
            <mxPoint x="350" y="410" as="sourcePoint" />
            <mxPoint x="400" y="360" as="targetPoint" />
            <Array as="points" />
          </mxGeometry>
        </mxCell>
        <mxCell id="t-lk_YIIwEsfysXy30gr-13" value="&amp;nbsp;Network Link*&amp;nbsp;" style="edgeLabel;html=1;align=center;verticalAlign=middle;resizable=0;points=[];labelBackgroundColor=#DAE8FC;fontSize=10;" parent="t-lk_YIIwEsfysXy30gr-12" vertex="1" connectable="0">
          <mxGeometry x="0.1915" y="1" relative="1" as="geometry">
            <mxPoint y="-9" as="offset" />
          </mxGeometry>
        </mxCell>
        <mxCell id="t-lk_YIIwEsfysXy30gr-14" value="" style="shape=image;verticalLabelPosition=bottom;verticalAlign=top;imageAspect=0;aspect=fixed;image=data:image/svg+xml,PHN2ZyB4bWxucz0iaHR0cDovL3d3dy53My5vcmcvMjAwMC9zdmciIGlkPSJiYzE4YmFkZS01NDgxLTQ0N2UtYTk1OS02NTlkNzIzNDY0NzQiIHdpZHRoPSIxOCIgaGVpZ2h0PSIxOCIgdmlld0JveD0iMCAwIDE4IDE4Ij4mI3hhOyAgICA8ZGVmcz4mI3hhOyAgICAgICAgPHJhZGlhbEdyYWRpZW50IGlkPSJhNDQ1YzcxNy05ZDc1LTQ0YzctYmE2Yi0wZDhmMjM4M2U1NjAiIGN4PSItMzYuNjMiIGN5PSIxNy4xMiIgcj0iMTEuMTgiIGdyYWRpZW50VHJhbnNmb3JtPSJ0cmFuc2xhdGUoNDEuODggLTcuNCkgc2NhbGUoMC45NCAwLjk0KSIgZ3JhZGllbnRVbml0cz0idXNlclNwYWNlT25Vc2UiPiYjeGE7ICAgICAgICAgICAgPHN0b3Agb2Zmc2V0PSIwLjI3IiBzdG9wLWNvbG9yPSIjZmZkNzBmIi8+JiN4YTsgICAgICAgICAgICA8c3RvcCBvZmZzZXQ9IjAuNDkiIHN0b3AtY29sb3I9IiNmZmNiMTIiLz4mI3hhOyAgICAgICAgICAgIDxzdG9wIG9mZnNldD0iMC44OCIgc3RvcC1jb2xvcj0iI2ZlYWMxOSIvPiYjeGE7ICAgICAgICAgICAgPHN0b3Agb2Zmc2V0PSIxIiBzdG9wLWNvbG9yPSIjZmVhMTFiIi8+JiN4YTsgICAgICAgIDwvcmFkaWFsR3JhZGllbnQ+JiN4YTsgICAgPC9kZWZzPiYjeGE7ICAgIDx0aXRsZT5JY29uLWdlbmVyYWwtMjwvdGl0bGU+JiN4YTsgICAgPHBhdGggaWQ9ImUzZDFlNThjLWY3OGUtNGZiNS05ODU3LTBjOTMzMWRhOTk3OSIgZD0iTTEzLjU2LDcuMTlhMi4wNywyLjA3LDAsMCwwLDAtMi45M2gwTDEwLC42OWEyLjA2LDIuMDYsMCwwLDAtMi45MiwwaDBMMy41Miw0LjI2YTIuMDksMi4wOSwwLDAsMCwwLDIuOTNsMywzYS42MS42MSwwLDAsMSwuMTcuNDF2NS41MmEuNy43LDAsMCwwLC4yLjVsMS4zNSwxLjM1YS40NS40NSwwLDAsMCwuNjYsMGwxLjMxLTEuMzFoMGwuNzctLjc3YS4yNi4yNiwwLDAsMCwwLS4zOGwtLjU1LS41NmEuMjkuMjksMCwwLDEsMC0uNDJsLjU1LS41NmEuMjYuMjYsMCwwLDAsMC0uMzhMMTAuNCwxM2EuMjguMjgsMCwwLDEsMC0uNDFMMTEsMTJhLjI2LjI2LDAsMCwwLDAtLjM4bC0uNzctLjc4di0uMjhabS01LTUuNjRBMS4xOCwxLjE4LDAsMSwxLDcuMzcsMi43MywxLjE3LDEuMTcsMCwwLDEsOC41NCwxLjU1WiIgZmlsbD0idXJsKCNhNDQ1YzcxNy05ZDc1LTQ0YzctYmE2Yi0wZDhmMjM4M2U1NjApIi8+JiN4YTsgICAgPHBhdGggaWQ9ImEyMWE4ZjdhLTYxY2MtNDAzNS04NDQ5LWU1YzhmZTRkNGQ1ZSIgZD0iTTcuNjIsMTYuMjFoMEEuMjUuMjUsMCwwLDAsOCwxNlYxMS41NWEuMjcuMjcsMCwwLDAtLjExLS4yMmgwYS4yNS4yNSwwLDAsMC0uMzkuMjJWMTZBLjI3LjI3LDAsMCwwLDcuNjIsMTYuMjFaIiBmaWxsPSIjZmY5MzAwIiBvcGFjaXR5PSIwLjc1Ii8+JiN4YTsgICAgPHJlY3QgaWQ9ImVjZDMxODljLWZiMWUtNGEwZS1hMmI2LWJhMmYxMWRkYTQ4NCIgeD0iNS42OSIgeT0iNS40NSIgd2lkdGg9IjUuODYiIGhlaWdodD0iMC42OSIgcng9IjAuMzIiIGZpbGw9IiNmZjkzMDAiIG9wYWNpdHk9IjAuNzUiLz4mI3hhOyAgICA8cmVjdCBpZD0iYTE5NDlhM2MtNDgxOC00YmQxLWIyMzYtMGQ5NzBiOTJmYzYyIiB4PSI1LjY5IiB5PSI2LjU3IiB3aWR0aD0iNS44NiIgaGVpZ2h0PSIwLjY5IiByeD0iMC4zMiIgZmlsbD0iI2ZmOTMwMCIgb3BhY2l0eT0iMC43NSIvPiYjeGE7PC9zdmc+" parent="1" vertex="1">
          <mxGeometry x="40" y="138.32999999999998" width="40" height="40" as="geometry" />
        </mxCell>
        <mxCell id="t-lk_YIIwEsfysXy30gr-15" value="Hub" style="text;html=1;strokeColor=none;fillColor=none;align=left;verticalAlign=middle;whiteSpace=wrap;rounded=0;" parent="1" vertex="1">
          <mxGeometry x="80" y="138.32999999999998" width="60" height="20" as="geometry" />
        </mxCell>
        <mxCell id="t-lk_YIIwEsfysXy30gr-16" value="" style="rounded=0;whiteSpace=wrap;html=1;fillColor=#dae8fc;strokeColor=none;" parent="1" vertex="1">
          <mxGeometry x="799" y="240" width="440" height="260" as="geometry" />
        </mxCell>
        <mxCell id="t-lk_YIIwEsfysXy30gr-17" value="" style="shape=image;verticalLabelPosition=bottom;verticalAlign=top;imageAspect=0;aspect=fixed;image=data:image/svg+xml,PHN2ZyB4bWxucz0iaHR0cDovL3d3dy53My5vcmcvMjAwMC9zdmciIGlkPSJiYzE4YmFkZS01NDgxLTQ0N2UtYTk1OS02NTlkNzIzNDY0NzQiIHdpZHRoPSIxOCIgaGVpZ2h0PSIxOCIgdmlld0JveD0iMCAwIDE4IDE4Ij4mI3hhOyAgICA8ZGVmcz4mI3hhOyAgICAgICAgPHJhZGlhbEdyYWRpZW50IGlkPSJhNDQ1YzcxNy05ZDc1LTQ0YzctYmE2Yi0wZDhmMjM4M2U1NjAiIGN4PSItMzYuNjMiIGN5PSIxNy4xMiIgcj0iMTEuMTgiIGdyYWRpZW50VHJhbnNmb3JtPSJ0cmFuc2xhdGUoNDEuODggLTcuNCkgc2NhbGUoMC45NCAwLjk0KSIgZ3JhZGllbnRVbml0cz0idXNlclNwYWNlT25Vc2UiPiYjeGE7ICAgICAgICAgICAgPHN0b3Agb2Zmc2V0PSIwLjI3IiBzdG9wLWNvbG9yPSIjZmZkNzBmIi8+JiN4YTsgICAgICAgICAgICA8c3RvcCBvZmZzZXQ9IjAuNDkiIHN0b3AtY29sb3I9IiNmZmNiMTIiLz4mI3hhOyAgICAgICAgICAgIDxzdG9wIG9mZnNldD0iMC44OCIgc3RvcC1jb2xvcj0iI2ZlYWMxOSIvPiYjeGE7ICAgICAgICAgICAgPHN0b3Agb2Zmc2V0PSIxIiBzdG9wLWNvbG9yPSIjZmVhMTFiIi8+JiN4YTsgICAgICAgIDwvcmFkaWFsR3JhZGllbnQ+JiN4YTsgICAgPC9kZWZzPiYjeGE7ICAgIDx0aXRsZT5JY29uLWdlbmVyYWwtMjwvdGl0bGU+JiN4YTsgICAgPHBhdGggaWQ9ImUzZDFlNThjLWY3OGUtNGZiNS05ODU3LTBjOTMzMWRhOTk3OSIgZD0iTTEzLjU2LDcuMTlhMi4wNywyLjA3LDAsMCwwLDAtMi45M2gwTDEwLC42OWEyLjA2LDIuMDYsMCwwLDAtMi45MiwwaDBMMy41Miw0LjI2YTIuMDksMi4wOSwwLDAsMCwwLDIuOTNsMywzYS42MS42MSwwLDAsMSwuMTcuNDF2NS41MmEuNy43LDAsMCwwLC4yLjVsMS4zNSwxLjM1YS40NS40NSwwLDAsMCwuNjYsMGwxLjMxLTEuMzFoMGwuNzctLjc3YS4yNi4yNiwwLDAsMCwwLS4zOGwtLjU1LS41NmEuMjkuMjksMCwwLDEsMC0uNDJsLjU1LS41NmEuMjYuMjYsMCwwLDAsMC0uMzhMMTAuNCwxM2EuMjguMjgsMCwwLDEsMC0uNDFMMTEsMTJhLjI2LjI2LDAsMCwwLDAtLjM4bC0uNzctLjc4di0uMjhabS01LTUuNjRBMS4xOCwxLjE4LDAsMSwxLDcuMzcsMi43MywxLjE3LDEuMTcsMCwwLDEsOC41NCwxLjU1WiIgZmlsbD0idXJsKCNhNDQ1YzcxNy05ZDc1LTQ0YzctYmE2Yi0wZDhmMjM4M2U1NjApIi8+JiN4YTsgICAgPHBhdGggaWQ9ImEyMWE4ZjdhLTYxY2MtNDAzNS04NDQ5LWU1YzhmZTRkNGQ1ZSIgZD0iTTcuNjIsMTYuMjFoMEEuMjUuMjUsMCwwLDAsOCwxNlYxMS41NWEuMjcuMjcsMCwwLDAtLjExLS4yMmgwYS4yNS4yNSwwLDAsMC0uMzkuMjJWMTZBLjI3LjI3LDAsMCwwLDcuNjIsMTYuMjFaIiBmaWxsPSIjZmY5MzAwIiBvcGFjaXR5PSIwLjc1Ii8+JiN4YTsgICAgPHJlY3QgaWQ9ImVjZDMxODljLWZiMWUtNGEwZS1hMmI2LWJhMmYxMWRkYTQ4NCIgeD0iNS42OSIgeT0iNS40NSIgd2lkdGg9IjUuODYiIGhlaWdodD0iMC42OSIgcng9IjAuMzIiIGZpbGw9IiNmZjkzMDAiIG9wYWNpdHk9IjAuNzUiLz4mI3hhOyAgICA8cmVjdCBpZD0iYTE5NDlhM2MtNDgxOC00YmQxLWIyMzYtMGQ5NzBiOTJmYzYyIiB4PSI1LjY5IiB5PSI2LjU3IiB3aWR0aD0iNS44NiIgaGVpZ2h0PSIwLjY5IiByeD0iMC4zMiIgZmlsbD0iI2ZmOTMwMCIgb3BhY2l0eT0iMC43NSIvPiYjeGE7PC9zdmc+" parent="1" vertex="1">
          <mxGeometry x="779" y="220" width="40" height="40" as="geometry" />
        </mxCell>
        <mxCell id="t-lk_YIIwEsfysXy30gr-18" value="Spoke" style="text;html=1;strokeColor=none;fillColor=none;align=left;verticalAlign=middle;whiteSpace=wrap;rounded=0;" parent="1" vertex="1">
          <mxGeometry x="819" y="220" width="60" height="20" as="geometry" />
        </mxCell>
        <mxCell id="t-lk_YIIwEsfysXy30gr-19" value="" style="rounded=0;whiteSpace=wrap;html=1;fillColor=#f5f5f5;fontColor=#333333;strokeColor=none;" parent="1" vertex="1">
          <mxGeometry x="839" y="270" width="360" height="107" as="geometry" />
        </mxCell>
        <mxCell id="t-lk_YIIwEsfysXy30gr-20" value="" style="shape=image;verticalLabelPosition=bottom;verticalAlign=top;imageAspect=0;aspect=fixed;image=data:image/svg+xml,PHN2ZyB4bWxucz0iaHR0cDovL3d3dy53My5vcmcvMjAwMC9zdmciIGlkPSJhMTYwNmE1Mi1mYjE0LTQ2MzctODdkZS00ZDUyNGJiYTE4MjkiIHdpZHRoPSIxOCIgaGVpZ2h0PSIxOCIgdmlld0JveD0iMCAwIDE4IDE4Ij4mI3hhOyAgICA8ZGVmcz4mI3hhOyAgICAgICAgPGxpbmVhckdyYWRpZW50IGlkPSJmMDIwZmI3ZS0yMjQzLTQ1MDEtODE1My01ZDY5YmQzYzM0ZjciIHgxPSI5Ljg4IiB5MT0iOC41OSIgeDI9IjExLjUyIiB5Mj0iMTAuMjMiIGdyYWRpZW50VHJhbnNmb3JtPSJ0cmFuc2xhdGUoMi4wMyAtMC40KSByb3RhdGUoLTAuMDgpIiBncmFkaWVudFVuaXRzPSJ1c2VyU3BhY2VPblVzZSI+JiN4YTsgICAgICAgICAgICA8c3RvcCBvZmZzZXQ9IjAiIHN0b3AtY29sb3I9IiM4NmQ2MzMiLz4mI3hhOzxzdG9wIG9mZnNldD0iMSIgc3RvcC1jb2xvcj0iIzVlOTYyNCIvPiYjeGE7ICAgICAgICA8L2xpbmVhckdyYWRpZW50PiYjeGE7ICAgICAgICA8bGluZWFyR3JhZGllbnQgaWQ9ImIzYzJiYzk0LThjN2MtNDhhMi05NzE5LTZlZTg5OWE0M2E5NyIgeDE9IjYuMTgiIHkxPSI4LjU5IiB4Mj0iNy44MSIgeTI9IjEwLjIzIiBncmFkaWVudFVuaXRzPSJ1c2VyU3BhY2VPblVzZSI+JiN4YTsgICAgICAgICAgICAgICAgICAgIDxzdG9wIG9mZnNldD0iMCIgc3RvcC1jb2xvcj0iIzg2ZDYzMyIvPiYjeGE7PHN0b3Agb2Zmc2V0PSIxIiBzdG9wLWNvbG9yPSIjNWU5NjI0Ii8+JiN4YTsgICAgICAgIDwvbGluZWFyR3JhZGllbnQ+JiN4YTsgICAgICAgIDxsaW5lYXJHcmFkaWVudCBpZD0iZTkwMGMzNWQtMDk1OC00ZDRmLWIyOGYtMzAyZWVhYWY1MmY1IiB4MT0iMi40OCIgeTE9IjguNTkiIHgyPSI0LjExIiB5Mj0iMTAuMjMiIGdyYWRpZW50VW5pdHM9InVzZXJTcGFjZU9uVXNlIj4mI3hhOyAgICAgICAgICAgICAgICAgICAgPHN0b3Agb2Zmc2V0PSIwIiBzdG9wLWNvbG9yPSIjODZkNjMzIi8+JiN4YTs8c3RvcCBvZmZzZXQ9IjEiIHN0b3AtY29sb3I9IiM1ZTk2MjQiLz4mI3hhOyAgICAgICAgPC9saW5lYXJHcmFkaWVudD4mI3hhOyAgICA8L2RlZnM+JiN4YTsgICAgPHRpdGxlPkljb24tbmV0d29ya2luZy02MTwvdGl0bGU+JiN4YTsgICAgPGNpcmNsZSBjeD0iMTIuNzQiIGN5PSI4Ljk5IiByPSIxLjE2IiBmaWxsPSJ1cmwoI2YwMjBmYjdlLTIyNDMtNDUwMS04MTUzLTVkNjliZDNjMzRmNykiLz4mI3hhOyAgICA8Y2lyY2xlIGN4PSI5LjA0IiBjeT0iOSIgcj0iMS4xNiIgZmlsbD0idXJsKCNiM2MyYmM5NC04YzdjLTQ4YTItOTcxOS02ZWU4OTlhNDNhOTcpIi8+JiN4YTsgICAgPGNpcmNsZSBjeD0iNS4zNCIgY3k9IjkiIHI9IjEuMTYiIGZpbGw9InVybCgjZTkwMGMzNWQtMDk1OC00ZDRmLWIyOGYtMzAyZWVhYWY1MmY1KSIvPiYjeGE7ICAgIDxwYXRoIGQ9Ik0yLjYxLDcuMjhoLjk0YS4zLjMsMCwwLDEsLjMuM3Y2Ljk0YS42LjYsMCwwLDEtLjYuNkgyLjMxYTAsMCwwLDAsMSwwLDBWNy41OGEuMy4zLDAsMCwxLC4zLS4zWiIgdHJhbnNmb3JtPSJ0cmFuc2xhdGUoMTMuMTggMTYuOTMpIHJvdGF0ZSgxMzQuOTIpIiBmaWxsPSIjNTBlNmZmIi8+JiN4YTsgICAgPHBhdGggZD0iTTIuNTYsMi45MUgzLjVhLjMuMywwLDAsMSwuMy4zdjcuNDNhMCwwLDAsMCwxLDAsMEgyLjg2YS42LjYsMCwwLDEtLjYtLjZWMy4yMWEuMy4zLDAsMCwxLC4zLS4zWiIgdHJhbnNmb3JtPSJ0cmFuc2xhdGUoNS42NiAtMC4xNikgcm90YXRlKDQ0LjkyKSIgZmlsbD0iIzE0OTBkZiIvPiYjeGE7ICAgIDxwYXRoIGQ9Ik0xNC4xNSw3LjI4aC45NGEuNi42LDAsMCwxLC42LjZ2Ni45NGEuMy4zLDAsMCwxLS4zLjNoLS45NGEuMy4zLDAsMCwxLS4zLS4zVjcuMjhhMCwwLDAsMCwxLDAsMFoiIHRyYW5zZm9ybT0idHJhbnNsYXRlKDEyLjMyIC03LjI4KSByb3RhdGUoNDUuMDgpIiBmaWxsPSIjNTBlNmZmIi8+JiN4YTsgICAgPHBhdGggZD0iTTE0LjgxLDIuOTFoLjk0YTAsMCwwLDAsMSwwLDB2Ny40M2EuMy4zLDAsMCwxLS4zLjNIMTQuNWEuMy4zLDAsMCwxLS4zLS4zVjMuNTFhLjYuNiwwLDAsMSwuNi0uNloiIHRyYW5zZm9ybT0idHJhbnNsYXRlKDMwLjM2IDAuOTkpIHJvdGF0ZSgxMzUuMDgpIiBmaWxsPSIjMTQ5MGRmIi8+JiN4YTs8L3N2Zz4=" parent="1" vertex="1">
          <mxGeometry x="819" y="251" width="40" height="40" as="geometry" />
        </mxCell>
        <mxCell id="t-lk_YIIwEsfysXy30gr-21" value="&lt;font style=&quot;font-size: 10px;&quot;&gt;snet-function-westeu&lt;br&gt;(delegated)&lt;br&gt;&lt;/font&gt;" style="rounded=0;whiteSpace=wrap;html=1;fillColor=none;strokeColor=#B3B3B3;dashed=1;" parent="1" vertex="1">
          <mxGeometry x="879" y="297" width="120" height="60" as="geometry" />
        </mxCell>
        <mxCell id="t-lk_YIIwEsfysXy30gr-22" value="&lt;font style=&quot;font-size: 10px;&quot;&gt;snet-endpoints-westeu&lt;/font&gt;" style="rounded=0;whiteSpace=wrap;html=1;fillColor=none;strokeColor=#B3B3B3;dashed=1;verticalAlign=top;" parent="1" vertex="1">
          <mxGeometry x="1039" y="297" width="120" height="60" as="geometry" />
        </mxCell>
        <mxCell id="t-lk_YIIwEsfysXy30gr-24" value="" style="endArrow=none;html=1;rounded=0;exitX=1;exitY=0.5;exitDx=0;exitDy=0;entryX=0;entryY=0.5;entryDx=0;entryDy=0;" parent="1" source="t-lk_YIIwEsfysXy30gr-2" target="t-lk_YIIwEsfysXy30gr-19" edge="1">
          <mxGeometry width="50" height="50" relative="1" as="geometry">
            <mxPoint x="610" y="350" as="sourcePoint" />
            <mxPoint x="660" y="300" as="targetPoint" />
          </mxGeometry>
        </mxCell>
        <mxCell id="t-lk_YIIwEsfysXy30gr-25" value="&amp;nbsp;Virtual Network Peering&amp;nbsp;" style="edgeLabel;html=1;align=center;verticalAlign=middle;resizable=0;points=[];fontSize=10;" parent="t-lk_YIIwEsfysXy30gr-24" vertex="1" connectable="0">
          <mxGeometry x="-0.29" relative="1" as="geometry">
            <mxPoint x="35" y="-2" as="offset" />
          </mxGeometry>
        </mxCell>
        <mxCell id="t-lk_YIIwEsfysXy30gr-26" value="Function App" style="shape=image;verticalLabelPosition=bottom;verticalAlign=top;imageAspect=0;aspect=fixed;image=data:image/svg+xml,PHN2ZyB4bWxucz0iaHR0cDovL3d3dy53My5vcmcvMjAwMC9zdmciIGlkPSJhMmM4ODMwNi1mYTAzLTRlNWItYjE5Mi00MDFmMGI3NzgwOGIiIHdpZHRoPSIxOCIgaGVpZ2h0PSIxOCIgdmlld0JveD0iMCAwIDE4IDE4Ij4mI3hhOyAgPGRlZnM+JiN4YTsgICAgPGxpbmVhckdyYWRpZW50IGlkPSJiNDAzYWNhNy1mMzg3LTQ0MzQtOTZiNC1hZTE1N2VkYzgzNWYiIHgxPSItMTc1Ljk5MyIgeTE9Ii0zNDMuNzIzIiB4Mj0iLTE3NS45OTMiIHkyPSItMzU5LjIzMiIgZ3JhZGllbnRUcmFuc2Zvcm09InRyYW5zbGF0ZSgyMTIuNTczIDM3MC41NDgpIHNjYWxlKDEuMTU2IDEuMDI5KSIgZ3JhZGllbnRVbml0cz0idXNlclNwYWNlT25Vc2UiPiYjeGE7ICAgICAgPHN0b3Agb2Zmc2V0PSIwIiBzdG9wLWNvbG9yPSIjZmVhMTFiIi8+JiN4YTsgICAgICA8c3RvcCBvZmZzZXQ9IjAuMjg0IiBzdG9wLWNvbG9yPSIjZmVhNTFhIi8+JiN4YTsgICAgICA8c3RvcCBvZmZzZXQ9IjAuNTQ3IiBzdG9wLWNvbG9yPSIjZmViMDE4Ii8+JiN4YTsgICAgICA8c3RvcCBvZmZzZXQ9IjAuOCIgc3RvcC1jb2xvcj0iI2ZmYzMxNCIvPiYjeGE7ICAgICAgPHN0b3Agb2Zmc2V0PSIxIiBzdG9wLWNvbG9yPSIjZmZkNzBmIi8+JiN4YTsgICAgPC9saW5lYXJHcmFkaWVudD4mI3hhOyAgPC9kZWZzPiYjeGE7ICA8dGl0bGU+SWNvbi1jb21wdXRlLTI5PC90aXRsZT4mI3hhOyAgPGc+JiN4YTsgICAgPHBhdGggZD0iTTIuMzcsNy40NzVIMy4yYS4yNjcuMjY3LDAsMCwxLC4yNjcuMjY3djYuMTQ4YS41MzMuNTMzLDAsMCwxLS41MzMuNTMzSDIuMWEwLDAsMCwwLDEsMCwwVjcuNzQxYS4yNjcuMjY3LDAsMCwxLC4yNjctLjI2N1oiIHRyYW5zZm9ybT0idHJhbnNsYXRlKDEyLjUwNyAxNi43MDUpIHJvdGF0ZSgxMzQuOTE5KSIgZmlsbD0iIzUwZTZmZiIvPiYjeGE7ICAgIDxwYXRoIGQ9Ik0yLjMyNSwzLjZoLjgzM2EuMjY3LjI2NywwLDAsMSwuMjY3LjI2N3Y2LjU4M2EwLDAsMCwwLDEsMCwwSDIuNTkxYS41MzMuNTMzLDAsMCwxLS41MzMtLjUzM1YzLjg2NUEuMjY3LjI2NywwLDAsMSwyLjMyNSwzLjZaIiB0cmFuc2Zvcm09InRyYW5zbGF0ZSg1Ljc1OSAwLjExNCkgcm90YXRlKDQ0LjkxOSkiIGZpbGw9IiMxNDkwZGYiLz4mI3hhOyAgPC9nPiYjeGE7ICA8Zz4mI3hhOyAgICA8cGF0aCBkPSJNMTQuNTMsNy40NzVoLjgzM2EuNTMzLjUzMywwLDAsMSwuNTMzLjUzM3Y2LjE0OGEuMjY3LjI2NywwLDAsMS0uMjY3LjI2N0gxNC44YS4yNjcuMjY3LDAsMCwxLS4yNjctLjI2N1Y3LjQ3NWEwLDAsMCwwLDEsMCwwWiIgdHJhbnNmb3JtPSJ0cmFuc2xhdGUoMTIuMjIzIC03LjU1NSkgcm90YXRlKDQ1LjA4MSkiIGZpbGw9IiM1MGU2ZmYiLz4mI3hhOyAgICA8cGF0aCBkPSJNMTUuMTA4LDMuNmguODMzYTAsMCwwLDAsMSwwLDB2Ni41ODNhLjI2Ny4yNjcsMCwwLDEtLjI2Ny4yNjdoLS44MzNhLjI2Ny4yNjcsMCwwLDEtLjI2Ny0uMjY3VjQuMTMxYS41MzMuNTMzLDAsMCwxLC41MzMtLjUzM1oiIHRyYW5zZm9ybT0idHJhbnNsYXRlKDMxLjAyMiAxLjIyMikgcm90YXRlKDEzNS4wODEpIiBmaWxsPSIjMTQ5MGRmIi8+JiN4YTsgIDwvZz4mI3hhOyAgPHBhdGggZD0iTTguNDU5LDkuOUg0Ljg3YS4xOTMuMTkzLDAsMCwxLS4yLS4xODEuMTY2LjE2NiwwLDAsMSwuMDE4LS4wNzVMOC45OTEsMS4xM2EuMjA2LjIwNiwwLDAsMSwuMTg2LS4xMDZoNC4yNDVhLjE5My4xOTMsMCwwLDEsLjIuMTgxLjE2NS4xNjUsMCwwLDEtLjAzNS4xTDguNTM0LDcuOTY2aDQuOTI4YS4xOTMuMTkzLDAsMCwxLC4yLjE4MS4xNzYuMTc2LDAsMCwxLS4wNTIuMTIyTDUuNDIxLDE2Ljc4OGMtLjA3Ny4wNDYtLjYyNC41LS4zNTYtLjE4OWgwWiIgZmlsbD0idXJsKCNiNDAzYWNhNy1mMzg3LTQ0MzQtOTZiNC1hZTE1N2VkYzgzNWYpIi8+JiN4YTs8L3N2Zz4=;fontSize=10;" parent="1" vertex="1">
          <mxGeometry x="919" y="422" width="40" height="40" as="geometry" />
        </mxCell>
        <mxCell id="t-lk_YIIwEsfysXy30gr-27" value="Cosmos DB" style="image;aspect=fixed;html=1;points=[];align=center;fontSize=10;image=img/lib/azure2/databases/Azure_Cosmos_DB.svg;labelBackgroundColor=#DAE8FC;" parent="1" vertex="1">
          <mxGeometry x="1107" y="422" width="40" height="40" as="geometry" />
        </mxCell>
        <mxCell id="t-lk_YIIwEsfysXy30gr-32" value="Use" style="endArrow=open;endSize=12;dashed=1;html=1;rounded=0;entryX=0.75;entryY=1;entryDx=0;entryDy=0;exitX=0.5;exitY=0;exitDx=0;exitDy=0;labelBackgroundColor=#DAE8FC;fontSize=10;" parent="1" source="t-lk_YIIwEsfysXy30gr-26" edge="1">
          <mxGeometry x="-0.0153" width="160" relative="1" as="geometry">
            <mxPoint x="939.5" y="460" as="sourcePoint" />
            <mxPoint x="938.5" y="357" as="targetPoint" />
            <mxPoint as="offset" />
          </mxGeometry>
        </mxCell>
        <mxCell id="t-lk_YIIwEsfysXy30gr-33" value="Use" style="endArrow=open;endSize=12;dashed=1;html=1;rounded=0;exitX=0.5;exitY=1;exitDx=0;exitDy=0;labelBackgroundColor=#DAE8FC;fontSize=10;entryX=0.511;entryY=-0.002;entryDx=0;entryDy=0;entryPerimeter=0;" parent="1" source="t-lk_YIIwEsfysXy30gr-23" target="t-lk_YIIwEsfysXy30gr-27" edge="1">
          <mxGeometry x="0.0934" width="160" relative="1" as="geometry">
            <mxPoint x="1191" y="491.5" as="sourcePoint" />
            <mxPoint x="1099" y="460" as="targetPoint" />
            <mxPoint as="offset" />
          </mxGeometry>
        </mxCell>
        <mxCell id="t-lk_YIIwEsfysXy30gr-34" value="privatelink.documents.azure.com" style="text;html=1;strokeColor=none;fillColor=none;align=center;verticalAlign=middle;whiteSpace=wrap;rounded=0;fontSize=10;" parent="1" vertex="1">
          <mxGeometry x="395" y="167.33" width="160" height="30" as="geometry" />
        </mxCell>
        <mxCell id="t-lk_YIIwEsfysXy30gr-35" value="" style="endArrow=classic;html=1;rounded=0;entryX=1;entryY=0.5;entryDx=0;entryDy=0;exitX=1;exitY=0.5;exitDx=0;exitDy=0;fontColor=#B3B3B3;strokeColor=#000000;dashed=1;" parent="1" source="t-lk_YIIwEsfysXy30gr-23" target="EMYNUx44aLwSDeEjnDvy-4" edge="1">
          <mxGeometry width="50" height="50" relative="1" as="geometry">
            <mxPoint x="1070" y="170" as="sourcePoint" />
            <mxPoint x="840" y="260" as="targetPoint" />
            <Array as="points">
              <mxPoint x="1180" y="334" />
              <mxPoint x="1180" y="210" />
            </Array>
          </mxGeometry>
        </mxCell>
        <mxCell id="t-lk_YIIwEsfysXy30gr-36" value="&amp;nbsp;Register A record&amp;nbsp;" style="edgeLabel;html=1;align=center;verticalAlign=middle;resizable=0;points=[];fontSize=10;" parent="t-lk_YIIwEsfysXy30gr-35" vertex="1" connectable="0">
          <mxGeometry x="-0.046" y="-1" relative="1" as="geometry">
            <mxPoint x="-237" as="offset" />
          </mxGeometry>
        </mxCell>
        <mxCell id="t-lk_YIIwEsfysXy30gr-37" value="168.63.129.16" style="rounded=0;whiteSpace=wrap;html=1;fontSize=9;fillColor=#0050ef;fontColor=#ffffff;strokeColor=#001DBC;" parent="1" vertex="1">
          <mxGeometry x="899" y="290" width="80" height="13" as="geometry" />
        </mxCell>
        <mxCell id="t-lk_YIIwEsfysXy30gr-44" value="168.63.129.16" style="rounded=0;whiteSpace=wrap;html=1;fontSize=9;fillColor=#0050ef;fontColor=#ffffff;strokeColor=#001DBC;" parent="1" vertex="1">
          <mxGeometry x="1059" y="290" width="80" height="13" as="geometry" />
        </mxCell>
        <mxCell id="t-lk_YIIwEsfysXy30gr-45" value="168.63.129.16" style="rounded=0;whiteSpace=wrap;html=1;fontSize=9;fillColor=#0050ef;fontColor=#ffffff;strokeColor=#001DBC;" parent="1" vertex="1">
          <mxGeometry x="310" y="297" width="80" height="13" as="geometry" />
        </mxCell>
        <mxCell id="t-lk_YIIwEsfysXy30gr-49" value="" style="endArrow=none;html=1;rounded=0;exitX=1.022;exitY=0.498;exitDx=0;exitDy=0;exitPerimeter=0;entryX=0;entryY=0.5;entryDx=0;entryDy=0;fillColor=#1ba1e2;strokeColor=#006EAF;strokeWidth=2;" parent="1" source="t-lk_YIIwEsfysXy30gr-9" target="t-lk_YIIwEsfysXy30gr-48" edge="1">
          <mxGeometry width="50" height="50" relative="1" as="geometry">
            <mxPoint x="329" y="480" as="sourcePoint" />
            <mxPoint x="379" y="430" as="targetPoint" />
          </mxGeometry>
        </mxCell>
        <mxCell id="t-lk_YIIwEsfysXy30gr-52" value="" style="rounded=0;whiteSpace=wrap;html=1;fillColor=#f5f5f5;dashed=1;fontColor=#333333;strokeColor=#666666;opacity=30;" parent="1" vertex="1">
          <mxGeometry x="100" y="400" width="379" height="80" as="geometry" />
        </mxCell>
        <mxCell id="t-lk_YIIwEsfysXy30gr-9" value="&lt;span style=&quot;font-size: 10px;&quot;&gt;Private DNS Resolver&lt;/span&gt;" style="image;aspect=fixed;html=1;points=[];align=center;fontSize=10;image=img/lib/azure2/networking/DNS_Private_Resolver.svg;labelBackgroundColor=#DAE8FC;" parent="1" vertex="1">
          <mxGeometry x="289" y="410" width="45.33" height="40" as="geometry" />
        </mxCell>
        <mxCell id="t-lk_YIIwEsfysXy30gr-39" value="Actor" style="shape=umlActor;verticalLabelPosition=bottom;verticalAlign=top;html=1;outlineConnect=0;fontSize=10;" parent="1" vertex="1">
          <mxGeometry x="-111" y="510" width="20" height="40" as="geometry" />
        </mxCell>
        <mxCell id="t-lk_YIIwEsfysXy30gr-41" value="" style="endArrow=none;html=1;rounded=0;entryX=0;entryY=0.5;entryDx=0;entryDy=0;fillColor=#0050ef;strokeColor=#001DBC;" parent="1" source="t-lk_YIIwEsfysXy30gr-39" target="t-lk_YIIwEsfysXy30gr-4" edge="1">
          <mxGeometry width="50" height="50" relative="1" as="geometry">
            <mxPoint x="159" y="553" as="sourcePoint" />
            <mxPoint x="219" y="510" as="targetPoint" />
            <Array as="points" />
          </mxGeometry>
        </mxCell>
        <mxCell id="t-lk_YIIwEsfysXy30gr-42" value="&amp;nbsp;DNS Query&amp;nbsp;" style="edgeLabel;html=1;align=center;verticalAlign=middle;resizable=0;points=[];labelBackgroundColor=#DAE8FC;fontSize=10;fontColor=#001DBC;" parent="t-lk_YIIwEsfysXy30gr-41" vertex="1" connectable="0">
          <mxGeometry x="-0.2441" relative="1" as="geometry">
            <mxPoint x="107" as="offset" />
          </mxGeometry>
        </mxCell>
        <mxCell id="t-lk_YIIwEsfysXy30gr-4" value="Virtual Network Gateway" style="shape=image;verticalLabelPosition=bottom;verticalAlign=top;imageAspect=0;aspect=fixed;image=data:image/svg+xml,PHN2ZyB4bWxucz0iaHR0cDovL3d3dy53My5vcmcvMjAwMC9zdmciIGlkPSJiNmY3NGNhNS0zYWU2LTQyNmYtOWVmMS05ZmY2YmJhYTdmMWMiIHdpZHRoPSIxOCIgaGVpZ2h0PSIxOCIgdmlld0JveD0iMCAwIDE4IDE4Ij48ZGVmcz48bGluZWFyR3JhZGllbnQgaWQ9ImJkNzMwNWY4LTg3ODktNDYwMC1hMWYyLTY1OTRlNjBlZWZjYyIgeDE9IjguNTkiIHkxPSItNy43OSIgeDI9IjkuMTIiIHkyPSIyMC4wNSIgZ3JhZGllbnRVbml0cz0idXNlclNwYWNlT25Vc2UiPjxzdG9wIG9mZnNldD0iMC4yMiIgc3RvcC1jb2xvcj0iIzMyZDRmNSIvPjxzdG9wIG9mZnNldD0iMC40NyIgc3RvcC1jb2xvcj0iIzMxZDFmMyIvPjxzdG9wIG9mZnNldD0iMC42MyIgc3RvcC1jb2xvcj0iIzJlYzllYiIvPjxzdG9wIG9mZnNldD0iMC43NyIgc3RvcC1jb2xvcj0iIzI5YmFkZSIvPjxzdG9wIG9mZnNldD0iMC44OSIgc3RvcC1jb2xvcj0iIzIyYTVjYiIvPjxzdG9wIG9mZnNldD0iMSIgc3RvcC1jb2xvcj0iIzE5OGFiMyIvPjxzdG9wIG9mZnNldD0iMSIgc3RvcC1jb2xvcj0iIzE5OGFiMyIvPjwvbGluZWFyR3JhZGllbnQ+PC9kZWZzPjx0aXRsZT5JY29uLW5ldHdvcmtpbmctNjM8L3RpdGxlPjxwYXRoIGQ9Ik0xNS4wNiw4LjY3aC0xVjUuNTlhNS44MSw1LjgxLDAsMCwwLTEuNDktMy45MkE0Ljc5LDQuNzksMCwwLDAsOC45MSwwYTQuNzksNC43OSwwLDAsMC0zLjcsMS42N0E1LjczLDUuNzMsMCwwLDAsMy43Miw1LjU5VjguNjdIMi45MWEuNy43LDAsMCwwLS42OS42OXY4YS43LjcsMCwwLDAsLjY5LjY5SDE1LjA2YS43MS43MSwwLDAsMCwuNy0uNjlWOS4zNkEuNzEuNzEsMCwwLDAsMTUuMDYsOC42N1ptLTMuMzcsMEg2LjEzVjUuNTRBMy4xOCwzLjE4LDAsMCwxLDcsMy4zOWEyLjUxLDIuNTEsMCwwLDEsMS44OC0uODYsMi41NCwyLjU0LDAsMCwxLDEuODkuODYsMy4xOSwzLjE5LDAsMCwxLC4zMi40M2gwYTMsMywwLDAsMSwuNjEsMS43MVoiIGZpbGw9InVybCgjYmQ3MzA1ZjgtODc4OS00NjAwLWExZjItNjU5NGU2MGVlZmNjKSIvPjxwYXRoIGQ9Ik0xNS4wOSw4LjY3SDIuOTJhLjY2LjY2LDAsMCwwLS40NC4xN2wxMy4wNSw5YS42Ny42NywwLDAsMCwuMjUtLjUydi04QS43MS43MSwwLDAsMCwxNS4wOSw4LjY3WiIgZmlsbD0iIzUwZTZmZiIvPjxwYXRoIGQ9Ik0yLjk0LDguNjdIMTUuMWEuNy43LDAsMCwxLC40NS4xN2wtMTMuMDYsOWEuNy43LDAsMCwxLS4yNS0uNTJ2LThBLjcyLjcyLDAsMCwxLDIuOTQsOC42N1oiIGZpbGw9IiNmZmYiIG9wYWNpdHk9IjAuMiIvPjxwYXRoIGQ9Ik03LjgsMTAuNiw5LDkuNGEuMDcuMDcsMCwwLDEsLjA5LDBsMS4xOSwxLjJhLjA2LjA2LDAsMCwxLDAsLjFoLS43YS4wNi4wNiwwLDAsMC0uMDYuMDZWMTIuM2EuMDYuMDYsMCwwLDEtLjA2LjA2SDguNjdhLjA1LjA1LDAsMCwxLS4wNi0uMDZWMTAuNzZhLjA3LjA3LDAsMCwwLS4wNy0uMDZoLS43QS4wNi4wNiwwLDAsMSw3LjgsMTAuNlptMi40Nyw1LjQ4TDkuMDgsMTcuMjdhLjA2LjA2LDAsMCwxLS4wOSwwTDcuOCwxNi4wOGEuMDYuMDYsMCwwLDEsMC0uMWguN2EuMDcuMDcsMCwwLDAsLjA3LS4wNlYxNC4zN2EuMDYuMDYsMCwwLDEsLjA2LS4wNmguNzRhLjA2LjA2LDAsMCwxLC4wNi4wNnYxLjU1YS4wNi4wNiwwLDAsMCwuMDYuMDZoLjdBLjA2LjA2LDAsMCwxLDEwLjI3LDE2LjA4Wm0tNC43LTEuNTV2LS43YS4wNi4wNiwwLDAsMC0uMDYtLjA2SDRhLjA2LjA2LDAsMCwxLS4wNi0uMDZWMTNBLjA2LjA2LDAsMCwxLDQsMTIuOTFINS41MWEuMDYuMDYsMCwwLDAsLjA2LS4wNnYtLjdhLjA3LjA3LDAsMCwxLC4xMS0uMDVsMS4xOSwxLjJhLjA2LjA2LDAsMCwxLDAsLjA4bC0xLjE5LDEuMkEuMDcuMDcsMCwwLDEsNS41NywxNC41M1ptNi45My0yLjM4di43YS4wNi4wNiwwLDAsMCwuMDYuMDZIMTQuMXMuMDcsMCwuMDcuMDZ2Ljc0YS4wNy4wNywwLDAsMS0uMDcuMDZIMTIuNTZhLjA2LjA2LDAsMCwwLS4wNi4wNnYuN2EuMDYuMDYsMCwwLDEtLjEuMDVsLTEuMTktMS4yYTAsMCwwLDAsMSwwLS4wOGwxLjE5LTEuMlMxMi41LDEyLjA5LDEyLjUsMTIuMTVaIiBmaWxsPSIjZmZmIi8+PC9zdmc+;fontSize=10;" parent="1" vertex="1">
          <mxGeometry x="169" y="510" width="40" height="40" as="geometry" />
        </mxCell>
        <mxCell id="t-lk_YIIwEsfysXy30gr-40" value="" style="shape=image;aspect=fixed;image=data:image/png,iVBORw0KGgoAAAANSUhEUgAAAHgAAAB4CAYAAAA5ZDbSAAAAAXNSR0IArs4c6QAAAARnQU1BAACxjwv8YQUAAAAJcEhZcwAADsIAAA7CARUoSoAAAAesSURBVHhe7dt7bFt3FQdwCwZjaegSP+LYbtoMmrZp03dix68k7dYJIcF4FNAY0xCTgAErD6kgKrWatj8G0hAIwaZNdGPr2tGuRGVdljpObMevuEmcZ9OuXQddXwM1FStbB103Hc75+WfH8dIwkOIm6PuRjupcX/tK/eb3u+d3740BAAAAAAAAAAAAAAAAAAAAAAAAAAAAAAAAAAAAAAAAAAAAAAAAAAAAACZJulzlQ/6W2xMNflWH3S23x93uUv02zEWH65utaU/TtkFPc3vM5Ts24t1A/FrVkLeF4i7fSJ+nqb3X27LlyObN8/THYC5IOf2bEk7fn4/4NtAwh9nvbpJAKaFLXqfdzeo9qaS3ZSC5bEWT/jjMRv1rb53f1+jz9Lj8rX0cXp8ONb9iDR5V+dsSjX4Ou4kS9moKGK2PpqxV1for4XoJ1G0qGfF6y+TcGnN6v9PvaX447vQeTzX631Mj0uWfFKJUrN5NsXUuiq1vVK+z2xM8ZYdrVlCnsZKiFgeFzPZ/dZhsB2Nm+8PtxormF0sXlsW4AlZriT48zDQOdScHOc6hXpSp9ihPxTJikzwa80PNlgQaXraKzu7eQ2f3/IHCtavUtgR/JrqmgTo4WA6VgmY7dXElLAuor2IBdZjtV3n7eI/FMR4w2nbqw8NM63Z5W1/2b6TDjTy1ThFofkmQkWUr6bUndlKWvJZtcf6FCC1eToFyq4T5vpKwwxx+f0UVT9+VrfrwMNO4K947kumEpy11zuWAz+19Xkc74fzz+6l75bpMmDx6C8PNrx4e0bzPXn14mGkfNODuletp5Nvfo7/39tFbx0/oaIkun3xVbev73GZ66cb5U4aaXwi4yD5owNnqqq6h0fu26HiJjm79KQUredpVI3f60SuFgIvsvw04wk3V2A+36niJXt62gw593EQd3DlPFWhhIeAi+08BF651I8tXTwp49Lvfp7YPl0wKkZuoST/nFwIusmkDlqUSV3R1feY1bysMePgb3+SAb8oEyF1y+7zyzFJJqiBcKQRcZNMFLOvav/z6tzTKzVWE174SskzRct7NGr3vfmr70MdUoDKS+z77BTrxwEN0qNSIgGcDFbCvRU3FkdrVKsBsBR3V6mLGu5cv08BX7qLwkhUq9MG77qHz+1vpzFPPUOrWT6lR+6LhRnWx4+qbb9KpRx+nAwaDGtm5uqFETd09vA5GwEUkAQ9zMD0tm+jYT7Zx07Q9V2M/2krjkagaqZfSg9R3xxc5YCfF+ZchaK2ig4aP0qH5ZtVkRVc30MV4Qu37t7Z2Grjzbhq+91u5GrrnXupauJiSRu60EXDxSMBD692U/vJXVTjTkdGZ2vRp6q5bl7skKQGHPllLV9+4pPe6trjTS4lS7rgRcPFEnb4Dw/wf3/uZz9Mb6QH6x5GxiRoZpSsXLuh4iF7naTnu9lO4ZuKSpPwrU++ZJ5/WexG9+/bb6nNXxsdVvTN+kf55+jRF1zopOd9CAbONZ3AoiqjT8+CAp5kSHLIEkF+hxbV05ve7VGjn+FzcXbeWInJJkkeunFOluZIRLCG/9JF5dOqxx9W+Z3ftzlyfliWWFH93jGeJTttCikqzZbT9WB8eZlrU6a3tlXu4sgziIPJLlkSvtx6gv75wkLqXr1FhdS74BAVti+jVR36pwldNVkkZBW62cMildPbZPXT6d09x03WDar6yJV11kH8xumVqN1Yu04eHmSb3geMu75E0j+LCZZJ01oNf+3ou8OiaetVQhW5ZytPuuBqtuWWSTNc3V6jR3dN825QXO2LqvG3vD5bYjPrwUAyxBu8vxrwb3hewlCyL1NUsHuXSBctIDFUvUTcZhHTIuQsdXDJdqzXwFBc6UhULOHjHA/qwUCwyTfM5+J2UvlpVWPKkhkzRgfJKOsRT8XQBX6vkfjCP7ittJluNPiwUE4e8a8y3ceqAOXgZvWp0yrJoUc3kgPUUfa0KcKXVUx22J0kfD4os5fRXp1y+8cIH7GT0RpauVOFKWNI9y+M4b514RQUsV7X+ZDBk3p9iWpbSz2e9EsBDeNdXpN69Zcy3gXqyUzX/K+dfuWolnbI0T+f37adzu5/LXdi4GInSuef2UfpLd2ZuG6r7whPhytQsz2S1GR1368PA9RR3+rYPeVoyD93JU5JLVqhzr9zvlaXQa3qtm+9CsEvtJ+fnwnClseKpebv+epgNYk7vM0f9Gykpo1cC0qMyUGbl8+1NdPLnj+hoiU795jFuskr43Mzh5k3RKlx158jxoP5amC0CdXUlSU/zr/qXrqJQwXo2UFahQpbbiJcGBqlrES+d5B5w3j5hs0OFGzTasCSazTqN9h3dFsd70iRJJ5wLmRsquajRaV+kuur8kSv7cl3tNNt36K+B2SxcbncFzbZj0ihxaBMhyzmZR3P2Z3nvMO/DHfZY0GRfoz8Oc0GHscoWMtn3yaVGqUmjmSvO26S6zY6H5M9T9MdgrgmYK38QNztOyp+jZENO8uu4xX48YLLdr3eDuazTZKoImR296Yoqtb6NWOzJcGWlSb8N/w/+aLVaEibHz0IV9h27MSUDAAAAAAAAAAAAAAAAAAAAAAAAAAAAAAAAAAAAAAAAAAAAAAAAAAD8TwyGfwMDgxmvJI+JRAAAAABJRU5ErkJggg==;" parent="1" vertex="1">
          <mxGeometry x="-71" y="470" width="120" height="120" as="geometry" />
        </mxCell>
        <mxCell id="t-lk_YIIwEsfysXy30gr-48" value="" style="ellipse;whiteSpace=wrap;html=1;aspect=fixed;fillColor=#1ba1e2;fontColor=#ffffff;strokeColor=#006EAF;" parent="1" vertex="1">
          <mxGeometry x="364" y="415" width="30" height="30" as="geometry" />
        </mxCell>
        <mxCell id="t-lk_YIIwEsfysXy30gr-50" value="Inbound Endpoint" style="text;html=1;strokeColor=none;fillColor=none;align=center;verticalAlign=middle;whiteSpace=wrap;rounded=0;fontSize=10;" parent="1" vertex="1">
          <mxGeometry x="364" y="448" width="96" height="30" as="geometry" />
        </mxCell>
        <mxCell id="t-lk_YIIwEsfysXy30gr-53" value="" style="endArrow=none;html=1;rounded=0;entryX=1;entryY=0.25;entryDx=0;entryDy=0;fillColor=#0050ef;strokeColor=#001DBC;exitX=1;exitY=0.5;exitDx=0;exitDy=0;" parent="1" source="t-lk_YIIwEsfysXy30gr-48" target="t-lk_YIIwEsfysXy30gr-45" edge="1">
          <mxGeometry width="50" height="50" relative="1" as="geometry">
            <mxPoint x="70" y="440" as="sourcePoint" />
            <mxPoint x="450" y="440" as="targetPoint" />
            <Array as="points">
              <mxPoint x="420" y="430" />
              <mxPoint x="420" y="300" />
            </Array>
          </mxGeometry>
        </mxCell>
        <mxCell id="t-lk_YIIwEsfysXy30gr-55" value="" style="endArrow=none;html=1;rounded=0;entryX=0.5;entryY=0;entryDx=0;entryDy=0;fillColor=#0050ef;strokeColor=#001DBC;exitX=0.5;exitY=0;exitDx=0;exitDy=0;" parent="1" source="t-lk_YIIwEsfysXy30gr-78" target="t-lk_YIIwEsfysXy30gr-76" edge="1">
          <mxGeometry width="50" height="50" relative="1" as="geometry">
            <mxPoint x="555" y="440" as="sourcePoint" />
            <mxPoint x="550" y="303" as="targetPoint" />
            <Array as="points">
              <mxPoint x="510" y="280" />
              <mxPoint x="190" y="280" />
            </Array>
          </mxGeometry>
        </mxCell>
        <mxCell id="t-lk_YIIwEsfysXy30gr-56" value="" style="endArrow=none;html=1;rounded=0;entryX=0.5;entryY=0;entryDx=0;entryDy=0;fillColor=#0050ef;strokeColor=#001DBC;exitX=0.5;exitY=0;exitDx=0;exitDy=0;" parent="1" source="t-lk_YIIwEsfysXy30gr-44" target="t-lk_YIIwEsfysXy30gr-37" edge="1">
          <mxGeometry width="50" height="50" relative="1" as="geometry">
            <mxPoint x="979" y="278" as="sourcePoint" />
            <mxPoint x="668" y="240" as="targetPoint" />
            <Array as="points">
              <mxPoint x="1099" y="260" />
              <mxPoint x="939" y="260" />
            </Array>
          </mxGeometry>
        </mxCell>
        <mxCell id="t-lk_YIIwEsfysXy30gr-59" value="" style="rounded=0;whiteSpace=wrap;html=1;fillColor=#f5f5f5;dashed=1;fontColor=#333333;strokeColor=#666666;opacity=30;" parent="1" vertex="1">
          <mxGeometry x="100" y="590" width="379" height="170" as="geometry" />
        </mxCell>
        <mxCell id="t-lk_YIIwEsfysXy30gr-60" value="" style="shape=image;verticalLabelPosition=bottom;verticalAlign=top;imageAspect=0;aspect=fixed;image=data:image/svg+xml,PHN2ZyB4bWxucz0iaHR0cDovL3d3dy53My5vcmcvMjAwMC9zdmciIGlkPSJlMWU3MWUyOS0wNjVhLTQ2ZjctYWQ0Yi01MmFmMzZhMGJmY2IiIHdpZHRoPSIxOCIgaGVpZ2h0PSIxOCIgdmlld0JveD0iMCAwIDE4IDE4Ij4mI3hhOyAgPGRlZnM+JiN4YTsgICAgPGxpbmVhckdyYWRpZW50IGlkPSJlZjg0NjYzYS1hN2I2LTQ2YTctYTI3NS0xZTQxOWY1ZWFlNjIiIHgxPSI5IiB5MT0iMTkuODUiIHgyPSI5IiB5Mj0iLTEuMDIiIGdyYWRpZW50VW5pdHM9InVzZXJTcGFjZU9uVXNlIj4mI3hhOyAgICAgIDxzdG9wIG9mZnNldD0iMCIgc3RvcC1jb2xvcj0iIzVlOTYyNCIvPiYjeGE7ICAgICAgPHN0b3Agb2Zmc2V0PSIwLjAyIiBzdG9wLWNvbG9yPSIjNWY5NzI0Ii8+JiN4YTsgICAgICA8c3RvcCBvZmZzZXQ9IjEiIHN0b3AtY29sb3I9IiM3NmJjMmQiLz4mI3hhOyAgICA8L2xpbmVhckdyYWRpZW50PiYjeGE7ICA8L2RlZnM+JiN4YTsgIDx0aXRsZT5JY29uLW5ldHdvcmtpbmctNjI8L3RpdGxlPiYjeGE7ICA8cGF0aCBkPSJNLjE4LDguNTcsOC41Ny4xOGEuNi42LDAsMCwxLC44NiwwbDguMzksOC4zOWEuNi42LDAsMCwxLDAsLjg2bC04LjQsOC40YS42LjYsMCwwLDEtLjg0LDBMLjE4LDkuNDNBLjYuNiwwLDAsMSwuMTgsOC41N1oiIGZpbGw9InVybCgjZWY4NDY2M2EtYTdiNi00NmE3LWEyNzUtMWU0MTlmNWVhZTYyKSIvPiYjeGE7ICA8cGF0aCBkPSJNMTEuMiw0LDkuMDgsMS44OWEuMTIuMTIsMCwwLDAtLjE2LDBMNi44LDRhLjEuMSwwLDAsMCwuMDguMThIOC4xMmEuMTEuMTEsMCwwLDEsLjExLjExdjJhLjExLjExLDAsMCwwLC4xMS4xMUg5LjY2YS4xMS4xMSwwLDAsMCwuMTEtLjExdi0yYS4xMS4xMSwwLDAsMSwuMTEtLjExaDEuMjRBLjEuMSwwLDAsMCwxMS4yLDRaIiBmaWxsPSIjYjRlYzM2Ii8+JiN4YTsgIDxwYXRoIGQ9Ik00LDYuNjEsMS45LDguNzRhLjExLjExLDAsMCwwLDAsLjE1TDQsMTFhLjExLjExLDAsMCwwLC4xOS0uMDhWOS42OWEuMTEuMTEsMCwwLDEsLjExLS4xMWgyYS4xLjEsMCwwLDAsLjEtLjExVjguMTVBLjEuMSwwLDAsMCw2LjMzLDhoLTJhLjEuMSwwLDAsMS0uMTEtLjFWNi42OUEuMTEuMTEsMCwwLDAsNCw2LjYxWiIgZmlsbD0iI2I0ZWMzNiIvPiYjeGE7ICA8cGF0aCBkPSJNMTQuMDgsMTFsMi4xMy0yLjEyYS4xMS4xMSwwLDAsMCwwLS4xNUwxNC4wOCw2LjYxYS4xMS4xMSwwLDAsMC0uMTguMDhWNy45NGEuMS4xLDAsMCwxLS4xMS4xaC0yYS4xLjEsMCwwLDAtLjEuMTFWOS40N2EuMS4xLDAsMCwwLC4xLjExaDJhLjExLjExLDAsMCwxLC4xMS4xMXYxLjI0QS4xMS4xMSwwLDAsMCwxNC4wOCwxMVoiIGZpbGw9IiNiNGVjMzYiLz4mI3hhOyAgPHBhdGggZD0iTTExLjc5LDlhMi43OSwyLjc5LDAsMSwwLTMuNTQsMi42N3YuOTVhMS43MSwxLjcxLDAsMSwwLDEuNTcsMHYtMUEyLjc3LDIuNzcsMCwwLDAsMTEuNzksOVoiIGZpbGw9IiNmZmYiLz4mI3hhOyAgPGNpcmNsZSBpZD0iZTk5YzMzODctMTVjMy00ZjI4LWJkNGItY2IyMDliNDMwZTA2IiBjeD0iOS4wMSIgY3k9IjguOTkiIHI9IjEuNjIiIGZpbGw9IiM1ZWEwZWYiLz4mI3hhOzwvc3ZnPg==;fontSize=10;" parent="1" vertex="1">
          <mxGeometry x="291.65999999999997" y="650" width="40" height="40" as="geometry" />
        </mxCell>
        <mxCell id="t-lk_YIIwEsfysXy30gr-61" value="DNS Forwarder" style="shape=image;verticalLabelPosition=bottom;verticalAlign=top;imageAspect=0;aspect=fixed;image=data:image/svg+xml,PHN2ZyB4bWxucz0iaHR0cDovL3d3dy53My5vcmcvMjAwMC9zdmciIGlkPSJmZDQ1NGYxYy01NTA2LTQ0YjgtODc0ZS04ODE0YjhiMmY3MGIiIHdpZHRoPSIxOCIgaGVpZ2h0PSIxOCIgdmlld0JveD0iMCAwIDE4IDE4Ij48ZGVmcz48bGluZWFyR3JhZGllbnQgaWQ9ImYzNGQ5NTY5LTJiZDAtNDAwMi04ZjE2LTNkMDFkODEwNmNiNSIgeDE9IjguODgiIHkxPSIxMi4yMSIgeDI9IjguODgiIHkyPSIwLjIxIiBncmFkaWVudFVuaXRzPSJ1c2VyU3BhY2VPblVzZSI+PHN0b3Agb2Zmc2V0PSIwIiBzdG9wLWNvbG9yPSIjMDA3OGQ0Ii8+PHN0b3Agb2Zmc2V0PSIwLjgyIiBzdG9wLWNvbG9yPSIjNWVhMGVmIi8+PC9saW5lYXJHcmFkaWVudD48bGluZWFyR3JhZGllbnQgaWQ9ImJkYjQ1YTBiLWViNTgtNDk3MC1hNjBhLWZiMmNlMzE0Zjg2NiIgeDE9IjguODgiIHkxPSIxNi44NCIgeDI9IjguODgiIHkyPSIxMi4yMSIgZ3JhZGllbnRVbml0cz0idXNlclNwYWNlT25Vc2UiPjxzdG9wIG9mZnNldD0iMC4xNSIgc3RvcC1jb2xvcj0iI2NjYyIvPjxzdG9wIG9mZnNldD0iMSIgc3RvcC1jb2xvcj0iIzcwNzA3MCIvPjwvbGluZWFyR3JhZGllbnQ+PC9kZWZzPjx0aXRsZT5JY29uLWNvbXB1dGUtMjE8L3RpdGxlPjxyZWN0IHg9Ii0wLjEyIiB5PSIwLjIxIiB3aWR0aD0iMTgiIGhlaWdodD0iMTIiIHJ4PSIwLjYiIGZpbGw9InVybCgjZjM0ZDk1NjktMmJkMC00MDAyLThmMTYtM2QwMWQ4MTA2Y2I1KSIvPjxwb2x5Z29uIHBvaW50cz0iMTEuODggNC40NiAxMS44OCA3Ljk1IDguODggOS43MSA4Ljg4IDYuMjEgMTEuODggNC40NiIgZmlsbD0iIzUwZTZmZiIvPjxwb2x5Z29uIHBvaW50cz0iMTEuODggNC40NiA4Ljg4IDYuMjIgNS44OCA0LjQ2IDguODggMi43MSAxMS44OCA0LjQ2IiBmaWxsPSIjYzNmMWZmIi8+PHBvbHlnb24gcG9pbnRzPSI4Ljg4IDYuMjIgOC44OCA5LjcxIDUuODggNy45NSA1Ljg4IDQuNDYgOC44OCA2LjIyIiBmaWxsPSIjOWNlYmZmIi8+PHBvbHlnb24gcG9pbnRzPSI1Ljg4IDcuOTUgOC44OCA2LjIxIDguODggOS43MSA1Ljg4IDcuOTUiIGZpbGw9IiNjM2YxZmYiLz48cG9seWdvbiBwb2ludHM9IjExLjg4IDcuOTUgOC44OCA2LjIxIDguODggOS43MSAxMS44OCA3Ljk1IiBmaWxsPSIjOWNlYmZmIi8+PHBhdGggZD0iTTEyLjQ5LDE1Ljg0Yy0xLjc4LS4yOC0xLjg1LTEuNTYtMS44NS0zLjYzSDcuMTFjMCwyLjA3LS4wNiwzLjM1LTEuODQsMy42M2ExLDEsMCwwLDAtLjg5LDFoOUExLDEsMCwwLDAsMTIuNDksMTUuODRaIiBmaWxsPSJ1cmwoI2JkYjQ1YTBiLWViNTgtNDk3MC1hNjBhLWZiMmNlMzE0Zjg2NikiLz48L3N2Zz4=;fontSize=10;" parent="1" vertex="1">
          <mxGeometry x="369" y="690" width="40" height="40" as="geometry" />
        </mxCell>
        <mxCell id="t-lk_YIIwEsfysXy30gr-62" value="DNS Forwarder" style="shape=image;verticalLabelPosition=bottom;verticalAlign=top;imageAspect=0;aspect=fixed;image=data:image/svg+xml,PHN2ZyB4bWxucz0iaHR0cDovL3d3dy53My5vcmcvMjAwMC9zdmciIGlkPSJmZDQ1NGYxYy01NTA2LTQ0YjgtODc0ZS04ODE0YjhiMmY3MGIiIHdpZHRoPSIxOCIgaGVpZ2h0PSIxOCIgdmlld0JveD0iMCAwIDE4IDE4Ij48ZGVmcz48bGluZWFyR3JhZGllbnQgaWQ9ImYzNGQ5NTY5LTJiZDAtNDAwMi04ZjE2LTNkMDFkODEwNmNiNSIgeDE9IjguODgiIHkxPSIxMi4yMSIgeDI9IjguODgiIHkyPSIwLjIxIiBncmFkaWVudFVuaXRzPSJ1c2VyU3BhY2VPblVzZSI+PHN0b3Agb2Zmc2V0PSIwIiBzdG9wLWNvbG9yPSIjMDA3OGQ0Ii8+PHN0b3Agb2Zmc2V0PSIwLjgyIiBzdG9wLWNvbG9yPSIjNWVhMGVmIi8+PC9saW5lYXJHcmFkaWVudD48bGluZWFyR3JhZGllbnQgaWQ9ImJkYjQ1YTBiLWViNTgtNDk3MC1hNjBhLWZiMmNlMzE0Zjg2NiIgeDE9IjguODgiIHkxPSIxNi44NCIgeDI9IjguODgiIHkyPSIxMi4yMSIgZ3JhZGllbnRVbml0cz0idXNlclNwYWNlT25Vc2UiPjxzdG9wIG9mZnNldD0iMC4xNSIgc3RvcC1jb2xvcj0iI2NjYyIvPjxzdG9wIG9mZnNldD0iMSIgc3RvcC1jb2xvcj0iIzcwNzA3MCIvPjwvbGluZWFyR3JhZGllbnQ+PC9kZWZzPjx0aXRsZT5JY29uLWNvbXB1dGUtMjE8L3RpdGxlPjxyZWN0IHg9Ii0wLjEyIiB5PSIwLjIxIiB3aWR0aD0iMTgiIGhlaWdodD0iMTIiIHJ4PSIwLjYiIGZpbGw9InVybCgjZjM0ZDk1NjktMmJkMC00MDAyLThmMTYtM2QwMWQ4MTA2Y2I1KSIvPjxwb2x5Z29uIHBvaW50cz0iMTEuODggNC40NiAxMS44OCA3Ljk1IDguODggOS43MSA4Ljg4IDYuMjEgMTEuODggNC40NiIgZmlsbD0iIzUwZTZmZiIvPjxwb2x5Z29uIHBvaW50cz0iMTEuODggNC40NiA4Ljg4IDYuMjIgNS44OCA0LjQ2IDguODggMi43MSAxMS44OCA0LjQ2IiBmaWxsPSIjYzNmMWZmIi8+PHBvbHlnb24gcG9pbnRzPSI4Ljg4IDYuMjIgOC44OCA5LjcxIDUuODggNy45NSA1Ljg4IDQuNDYgOC44OCA2LjIyIiBmaWxsPSIjOWNlYmZmIi8+PHBvbHlnb24gcG9pbnRzPSI1Ljg4IDcuOTUgOC44OCA2LjIxIDguODggOS43MSA1Ljg4IDcuOTUiIGZpbGw9IiNjM2YxZmYiLz48cG9seWdvbiBwb2ludHM9IjExLjg4IDcuOTUgOC44OCA2LjIxIDguODggOS43MSAxMS44OCA3Ljk1IiBmaWxsPSIjOWNlYmZmIi8+PHBhdGggZD0iTTEyLjQ5LDE1Ljg0Yy0xLjc4LS4yOC0xLjg1LTEuNTYtMS44NS0zLjYzSDcuMTFjMCwyLjA3LS4wNiwzLjM1LTEuODQsMy42M2ExLDEsMCwwLDAtLjg5LDFoOUExLDEsMCwwLDAsMTIuNDksMTUuODRaIiBmaWxsPSJ1cmwoI2JkYjQ1YTBiLWViNTgtNDk3MC1hNjBhLWZiMmNlMzE0Zjg2NikiLz48L3N2Zz4=;fontSize=10;" parent="1" vertex="1">
          <mxGeometry x="369" y="610" width="40" height="40" as="geometry" />
        </mxCell>
        <mxCell id="t-lk_YIIwEsfysXy30gr-63" value="" style="endArrow=none;html=1;rounded=0;entryX=0;entryY=0.5;entryDx=0;entryDy=0;fillColor=#0050ef;strokeColor=#001DBC;exitX=-0.028;exitY=0.499;exitDx=0;exitDy=0;exitPerimeter=0;" parent="1" source="t-lk_YIIwEsfysXy30gr-9" target="t-lk_YIIwEsfysXy30gr-60" edge="1">
          <mxGeometry width="50" height="50" relative="1" as="geometry">
            <mxPoint x="249" y="430" as="sourcePoint" />
            <mxPoint x="239" y="584" as="targetPoint" />
            <Array as="points">
              <mxPoint x="250" y="430" />
              <mxPoint x="250" y="670" />
            </Array>
          </mxGeometry>
        </mxCell>
        <mxCell id="t-lk_YIIwEsfysXy30gr-65" value="" style="endArrow=none;html=1;rounded=0;entryX=1;entryY=0.5;entryDx=0;entryDy=0;fillColor=#0050ef;strokeColor=#001DBC;exitX=1;exitY=0.5;exitDx=0;exitDy=0;" parent="1" source="t-lk_YIIwEsfysXy30gr-61" target="t-lk_YIIwEsfysXy30gr-62" edge="1">
          <mxGeometry width="50" height="50" relative="1" as="geometry">
            <mxPoint x="69" y="810" as="sourcePoint" />
            <mxPoint x="449" y="810" as="targetPoint" />
            <Array as="points">
              <mxPoint x="430" y="710" />
              <mxPoint x="430" y="630" />
            </Array>
          </mxGeometry>
        </mxCell>
        <mxCell id="t-lk_YIIwEsfysXy30gr-67" value="" style="endArrow=none;html=1;rounded=0;fillColor=#0050ef;strokeColor=#001DBC;entryX=1;entryY=0.25;entryDx=0;entryDy=0;jumpStyle=arc;" parent="1" target="t-lk_YIIwEsfysXy30gr-78" edge="1">
          <mxGeometry width="50" height="50" relative="1" as="geometry">
            <mxPoint x="430" y="670" as="sourcePoint" />
            <mxPoint x="580" y="290" as="targetPoint" />
            <Array as="points">
              <mxPoint x="580" y="670" />
              <mxPoint x="580" y="300" />
            </Array>
          </mxGeometry>
        </mxCell>
        <mxCell id="t-lk_YIIwEsfysXy30gr-69" value="" style="endArrow=none;html=1;rounded=0;entryX=0;entryY=0.5;entryDx=0;entryDy=0;fillColor=#0050ef;strokeColor=#001DBC;exitX=0;exitY=0.5;exitDx=0;exitDy=0;" parent="1" source="t-lk_YIIwEsfysXy30gr-61" target="t-lk_YIIwEsfysXy30gr-62" edge="1">
          <mxGeometry width="50" height="50" relative="1" as="geometry">
            <mxPoint x="299" y="706" as="sourcePoint" />
            <mxPoint x="300" y="630" as="targetPoint" />
            <Array as="points">
              <mxPoint x="350" y="710" />
              <mxPoint x="350" y="630" />
            </Array>
          </mxGeometry>
        </mxCell>
        <mxCell id="t-lk_YIIwEsfysXy30gr-70" value="" style="endArrow=none;html=1;rounded=0;fillColor=#0050ef;strokeColor=#001DBC;exitX=1;exitY=0.5;exitDx=0;exitDy=0;" parent="1" source="t-lk_YIIwEsfysXy30gr-60" edge="1">
          <mxGeometry width="50" height="50" relative="1" as="geometry">
            <mxPoint x="329" y="670" as="sourcePoint" />
            <mxPoint x="350" y="670" as="targetPoint" />
            <Array as="points" />
          </mxGeometry>
        </mxCell>
        <mxCell id="t-lk_YIIwEsfysXy30gr-71" value="" style="endArrow=none;html=1;rounded=0;fillColor=#0050ef;strokeColor=#001DBC;entryX=1;entryY=0.5;entryDx=0;entryDy=0;" parent="1" target="t-lk_YIIwEsfysXy30gr-4" edge="1">
          <mxGeometry width="50" height="50" relative="1" as="geometry">
            <mxPoint x="250" y="530" as="sourcePoint" />
            <mxPoint x="-11" y="610" as="targetPoint" />
            <Array as="points" />
          </mxGeometry>
        </mxCell>
        <mxCell id="t-lk_YIIwEsfysXy30gr-72" value="Option A" style="text;html=1;strokeColor=none;fillColor=none;align=center;verticalAlign=middle;whiteSpace=wrap;rounded=0;rotation=-90;" parent="1" vertex="1">
          <mxGeometry x="35" y="660" width="160" height="30" as="geometry" />
        </mxCell>
        <mxCell id="t-lk_YIIwEsfysXy30gr-73" value="Option B" style="text;html=1;strokeColor=none;fillColor=none;align=center;verticalAlign=middle;whiteSpace=wrap;rounded=0;rotation=-90;" parent="1" vertex="1">
          <mxGeometry x="80" y="425" width="70" height="30" as="geometry" />
        </mxCell>
        <mxCell id="t-lk_YIIwEsfysXy30gr-76" value="168.63.129.16" style="rounded=0;whiteSpace=wrap;html=1;fontSize=9;fillColor=#0050ef;fontColor=#ffffff;strokeColor=#001DBC;verticalAlign=middle;" parent="1" vertex="1">
          <mxGeometry x="150" y="297" width="80" height="13" as="geometry" />
        </mxCell>
        <mxCell id="t-lk_YIIwEsfysXy30gr-77" value="&lt;span style=&quot;font-size: 10px;&quot;&gt;snet-dns-westeu&lt;/span&gt;" style="rounded=0;whiteSpace=wrap;html=1;fillColor=none;strokeColor=#B3B3B3;dashed=1;" parent="1" vertex="1">
          <mxGeometry x="450" y="304" width="120" height="60" as="geometry" />
        </mxCell>
        <mxCell id="t-lk_YIIwEsfysXy30gr-78" value="168.63.129.16" style="rounded=0;whiteSpace=wrap;html=1;fontSize=9;fillColor=#0050ef;fontColor=#ffffff;strokeColor=#001DBC;" parent="1" vertex="1">
          <mxGeometry x="470" y="297" width="80" height="13" as="geometry" />
        </mxCell>
        <mxCell id="t-lk_YIIwEsfysXy30gr-80" value="" style="endArrow=none;html=1;rounded=0;entryX=0;entryY=0.5;entryDx=0;entryDy=0;fillColor=#0050ef;strokeColor=#001DBC;exitX=0.5;exitY=0;exitDx=0;exitDy=0;" parent="1" source="t-lk_YIIwEsfysXy30gr-45" target="EMYNUx44aLwSDeEjnDvy-4" edge="1">
          <mxGeometry width="50" height="50" relative="1" as="geometry">
            <mxPoint x="430" y="440" as="sourcePoint" />
            <mxPoint x="400" y="310" as="targetPoint" />
            <Array as="points">
              <mxPoint x="350" y="210" />
            </Array>
          </mxGeometry>
        </mxCell>
        <mxCell id="EMYNUx44aLwSDeEjnDvy-1" value="" style="endArrow=none;dashed=1;html=1;rounded=0;exitX=1;exitY=0.75;exitDx=0;exitDy=0;entryX=0;entryY=0.25;entryDx=0;entryDy=0;fillColor=#0050ef;strokeColor=#001DBC;" edge="1" parent="1" source="EMYNUx44aLwSDeEjnDvy-4" target="t-lk_YIIwEsfysXy30gr-19">
          <mxGeometry width="50" height="50" relative="1" as="geometry">
            <mxPoint x="485" y="241" as="sourcePoint" />
            <mxPoint x="485" y="280" as="targetPoint" />
            <Array as="points">
              <mxPoint x="720" y="223" />
              <mxPoint x="720" y="297" />
            </Array>
          </mxGeometry>
        </mxCell>
        <mxCell id="EMYNUx44aLwSDeEjnDvy-3" value="&amp;nbsp;Network Link*&amp;nbsp;" style="edgeLabel;html=1;align=center;verticalAlign=middle;resizable=0;points=[];fontSize=10;" vertex="1" connectable="0" parent="EMYNUx44aLwSDeEjnDvy-1">
          <mxGeometry x="0.2563" relative="1" as="geometry">
            <mxPoint as="offset" />
          </mxGeometry>
        </mxCell>
        <mxCell id="t-lk_YIIwEsfysXy30gr-11" value="" style="image;aspect=fixed;html=1;points=[];align=center;fontSize=10;image=img/lib/azure2/networking/DNS_Zones.svg;labelBackgroundColor=#DAE8FC;" parent="1" vertex="1">
          <mxGeometry x="455" y="190.33" width="40" height="40" as="geometry" />
        </mxCell>
        <mxCell id="EMYNUx44aLwSDeEjnDvy-5" value="" style="endArrow=none;html=1;rounded=0;entryX=1;entryY=0.25;entryDx=0;entryDy=0;fillColor=#0050ef;strokeColor=#001DBC;jumpStyle=arc;" edge="1" parent="1" target="EMYNUx44aLwSDeEjnDvy-4">
          <mxGeometry width="50" height="50" relative="1" as="geometry">
            <mxPoint x="1020" y="260" as="sourcePoint" />
            <mxPoint x="495" y="200" as="targetPoint" />
            <Array as="points">
              <mxPoint x="1020" y="198" />
            </Array>
          </mxGeometry>
        </mxCell>
        <mxCell id="EMYNUx44aLwSDeEjnDvy-6" value="&lt;font color=&quot;#001dbc&quot; style=&quot;font-size: 10px;&quot;&gt;&amp;nbsp;DNS Query&amp;nbsp;&lt;/font&gt;" style="edgeLabel;html=1;align=center;verticalAlign=middle;resizable=0;points=[];fontSize=10;" vertex="1" connectable="0" parent="EMYNUx44aLwSDeEjnDvy-5">
          <mxGeometry x="-0.8972" relative="1" as="geometry">
            <mxPoint as="offset" />
          </mxGeometry>
        </mxCell>
        <mxCell id="EMYNUx44aLwSDeEjnDvy-4" value="" style="rounded=0;whiteSpace=wrap;html=1;fillColor=none;strokeColor=none;" vertex="1" parent="1">
          <mxGeometry x="450" y="185.17" width="50" height="50.33" as="geometry" />
        </mxCell>
        <mxCell id="EMYNUx44aLwSDeEjnDvy-9" value="" style="rounded=0;whiteSpace=wrap;html=1;fillColor=none;strokeColor=none;" vertex="1" parent="1">
          <mxGeometry x="1079" y="319" width="40" height="41" as="geometry" />
        </mxCell>
        <mxCell id="t-lk_YIIwEsfysXy30gr-23" value="" style="shape=image;verticalLabelPosition=bottom;labelBackgroundColor=#ffffff;verticalAlign=top;aspect=fixed;imageAspect=0;image=data:image/svg+xml,PHN2ZyB4bWxucz0iaHR0cDovL3d3dy53My5vcmcvMjAwMC9zdmciIHhtbG5zOnhsaW5rPSJodHRwOi8vd3d3LnczLm9yZy8xOTk5L3hsaW5rIiB2ZXJzaW9uPSIxLjEiIGlkPSJMYXllcl8xIiB4PSIwcHgiIHk9IjBweCIgd2lkdGg9IjIwMHB4IiBoZWlnaHQ9IjIwMHB4IiB2aWV3Qm94PSIwIDAgMjAwIDIwMCIgZW5hYmxlLWJhY2tncm91bmQ9Im5ldyAwIDAgMjAwIDIwMCIgeG1sOnNwYWNlPSJwcmVzZXJ2ZSI+ICA8aW1hZ2UgaWQ9ImltYWdlMCIgd2lkdGg9IjIwMCIgaGVpZ2h0PSIyMDAiIHg9IjAiIHk9IjAiIHhsaW5rOmhyZWY9ImRhdGE6aW1hZ2UvcG5nO2Jhc2U2NCxpVkJPUncwS0dnb0FBQUFOU1VoRVVnQUFBTWdBQUFESUNBWUFBQUN0V0s2ZUFBQUFCR2RCVFVFQUFMR1BDL3hoQlFBQUFDQmpTRkpOIEFBQjZKZ0FBZ0lRQUFQb0FBQUNBNkFBQWRUQUFBT3BnQUFBNm1BQUFGM0NjdWxFOEFBQUFCbUpMUjBRQS93RC9BUCtndmFlVEFBQUEgQ1hCSVdYTUFBQTdEQUFBT3d3SEhiNmhrQUFBcGxVbEVRVlI0MnUyZGFYZ2IxYm1BejJ6YWw1RXN5YmE4TzRtelNFbWNCSk9FRkhBbyBZUzJMMmNNUzRMS1VTd2hReWxhM1FOa0VZV3VnemIybGhaYUdOaXlsTlJjSWhLMVJhRUwyWGNxaU9JNGQyN0t0eFJxdG85RnM5MGZpIE5xVGdKTkxZSTRuei91RjVpUFhOZDhaNlBXZG16dmsrQUNBUUNBUUNnVUFnRUFoazlFRGtUdUQ3Q2tWUlNFOHFpTzRaUlBCQUVzY0cgRWd3YW9WbFVwOEJFaTBZaHFBaE10R2dJemxtcTRSdzJreUIzdnQ5WG9DQ2pDRVZSeU9aQUd1dWcwc3BBSXEyM2FkbHhHUkZ2aWpORSA5U0RObHNZWTFxN0dzYWhKVGZRcE1KUldFK2h1VVJTK0NpVFl2aG1WaHZSRXE0YUZzb3d1VUpCUm9zM2p4K04waGt4eVFpUEY4UE4yIERNVFA2cUxTcHh6dmN5WVYzamV1UkxPdXhxUmVxY1FSdDA2QjlaeFNZV0NnS0tNREZHU0U4UVlpYUpzbm9BRUFtUnBOY3pmdURpWXUgSEV4ejlteGkxWktxalk1UzNac21OYkVTQUtScjRjeGFWdTd4RlR0UWtCR2t6ZVBISXd4YjdlbVBYK01MMDNlR2FiWkNpcmhqU3pSZiBWSlBxeFFwRS9QcWVHV1UwU1pLaTNHTXRWcUFnSThUU0RaMEtodVduK3NLcHUvY0VrNWRuZUVFdFpmeHl2ZEpYWTFDNnBwWnFQMnFxIElTTnd5alV5NEhJblVJeTBlZnpFbm5EcWxIMmg1R08rVVBLY2tUaEdYNXhweUhEQzB3b01MVlVRMkRLS29nYmdsVVI2b0NBU3M2bmIgaTIvb1NVeHNEOU9MUmtxT0ljSTBXK0VOSmhjbE0xeHdNSlY1RHdBUWwzdjh4UVlxZHdMRkJFVlJ5QlkvWDdGeklIcjdubUR5bXRFNCBacGhtSy8xSjl1RjlnK2t6bG03b1ZNcDlEb29OS0lpRXJPaUlhamYzQ21mN1F2ek5vM25jdmpqVEVFM3o5MFJvMXVFTlJEQzV6ME14IEFRV1JDRzhnZ3UwZHBDZlNuSGdMd3d1YTBUNysvbkJ5WG44OGZkNytVSXFVKzF3VUUxQVFpZGdYVEJtakRQZkRqZ2c5VzY0Y0JtbnUgb2kzKytCaDRGWkVPS0lnRVVCU0ZmTjFGVllXUzdDVnk1bkV3UXM5S1pQZ3p1eWpHSVBjNUtSYWdJQkt3Szh5b1lndy8rV0NFbmlWMyBMcW1NY01ibW5waEY3anlLQlNpSUJCeWdHQk9wd2srVE93OEFBT2lKMHRQOXNiUWRUck9rQVFvaUFWdjhVYU0vd1RUS25RY0FBQXltIE9idFdpYy9zR0V6RGFaWUV3QmVGRXVBSkpBMkNDQnJsem1NSUVRRG5vU2lqQndCRTVNNmwwSUZYa0J6eEJpSllpWVl3U3IzV0toY0UgUVZTd3ZBQi90eElBVDJLT2NIeFNQZDZpcUpVN2o2TkpzWHhKS0psUnlKMUhNUUFGeVpFTUY4V1ZXRVl2ZHg1SFEzTUNHV1U0T0gyVyBBQ2hJanVBb3hpWXpDQ1YzSGtlanhOQ29Ub0Z6Y3VkUkRFQkJjcVJPVzBidkRmRUg1YzdqYUF3cTNGOXBWS1hsenFNWWdJTGtDRW1TIEFzMEtjUTJPUnVYT1pRZ2M1U05HSlErMzQwb0FGRVFDSmxtMThVcURhcGZjZVF6Qjg1bGRUaXNYa3p1UFlnQUtJZ0V6S28yREZwMWkgamR4NUFBQ0FTWTEzeGhoOFQ2MjJsSlk3bDJJQUNpSUIwKzA2aXVXRnI3VUVSc21kUzBPSlpzM1VNbjB2U1pKd2o3b0VRRUVrd0dFeiBaWEFFT1ZCaFVNbzZ6ZElTR0tYR3NIVmpTRFY4Z3k0UlVCQ0pHR1BSOWhtVStOKzFCQ2JibDdQU29GeFBLckcxczh2VmNHKzZSRUJCIEpHTGh6TnFJRGtkWFZobVU2K1U0dnBiQUlxU0srSHVEVmRjQnAxZlNBUVdSa0ZPcnlONXlnM0s1UlVPMGorWnhjUlRKMlBXS0R4VW8gK0xMRmFZZFhEd21CZ2toSWk5TWVMOVVTbjljWVZjdDBCRFk0V3NjdDFTazJqTE5vMzdqeEZIdVAzT2VnMklDQ1NNeU5Ea3ZRb3NMZiBJbFg0V3ppS1pFYjZlRmF0d3ROUW9uM1ZhZFZ0Y2RoTUkzNjg3eHRRRUlraFNWSzQ5OVR5RHJNYVgycFc0MzhjeVN1SlRhdFlQOUdxIGZhSENxUHFreFdtSEx3WkhBRmliZDRTZ0tBcjkxVWIvbU41NDVxYUJGSHRsS01XT2t5bzJqaUlaaXdaMVR5N1YvblphbWZsTEtNZkkgQVFVWlFTaUtRdC9aTjFpMkx4eWYxeGRqTGcrbHhEa0psamZuRXRPaUlkcTFCUFpoUXdueXQ0c21LTFkxVlRsU2NvK3ptSUdDakFLYiB1cjJhZnh6Z0p1d0ppZWVtZWVHU2NKSnRTTEM4NldSaWxHaUlBNlFLLzhxc0pyNllhTkdzbmovQjNBY2Y1NDQ4VUpCUlpPbUdUa3R2IE5PM3NhTjkvTlplSzM1RlFHRUJVK2QwWEZDTVRBYnBNRkJqMSt0MVdtL1hWQ1RYbEh6ZFZHcm9kTmhNajkxaStMOEJkWjZQSXdwbTEgSVFDQSs3NUhueHdQQUFBTXBnWXBRZ3NBQUNDREtVRUdVd0VBQUZEd2FhRGdHYUJoazBESjA2QmFZK3NkcjhJM25EOTkxcWkrWDRGQSBRV1JCeGRILytxK1JPZnlRaTBkeHdLRUVBQUFBWEdBQkp2eDdReUF1d0swZGNnRUZ5Uk13Z2Z1R0ZKRDhBTDRIZ1VDR0FRb0NnUXdEIEZBUUNHUVlvQ0FReURGQVFDR1FZb0NBUXlEQkFRU0NRWVlDQ1FDRERBQVdCUUlZQkNnS0JEQU1VQkFJWkJpZ0lCRElNVUJBSVpCaWcgSUJESU1FQkJJSkJoZ0lKQUlNTUFCWUZBaGdFS0FvRU1BeFFFQWhrR0tBZ0VNZ3hRRUFoa0dLQWdFTWd3UUVFZ2tHR0Fna0Fnd3dBRiBnVUNHQVFvQ2dRd0RGQVFDR1FZb0NBUXlERkFRQ0dRWW9DQVF5REJBUVNDUVlZQ0NRQ0REQUFXQlFJYWhxRHRNZVFNUkpRQWc0N0NaIFJMbHpLVFlvaWdLMEFQQkJUc1NLdWFsb1VRbENVUlQ2Nm82Z2RXMDNaUXFuT01WZmR2VFg3K3hQOU01L2EwdnNjb2NpVUdOQ28wMVYgRHRnNk9Vc29pZ0s3d21saXZUOXB2ZmZ6ZzBhMUFpc3phUWpqM05mWHR6ZFY2R0pYT3BCd1U1VWpLWGVlVWxJMGduZ0RFZVV2MTNSUCBFZ0Z5RzhlTEZ3TWdscTNxaUdBQUFFQm9GUjA3QnRnLzdCOVUvYzNsOXUxdmJXN2c1YzYzMFBBR0lzaG4zWEhEMms1cUZvWmhDNklNIFAydmZJRjBQQUFBS0RFMUYwdHpxTHp2RXQxeHUzMmV0elEwRGN1Y3JGVVZ4RCtJTlJGVC90eWQ0NXI0dy9mcG1mK3oyU0pxckVFU0EgRGYxN2Z6SlQvMFZIK3FtREZQZXlDSkFKU3pkMEZzVzRSd3VLb3NEMm5xaG1VMjk4L3M1QThyMTEzZFMxL2NsTS9kQy9aM2hCNHhsSSBuZjlaTy9OeUlKbDUyT1gybGN1ZHMxUVUvQmZGRzRpbzJuWUh6L3huSi9WTWpPR25IQzNHc2V3YVNKempqek9QcVhIRTVnMUVFTGx6IEx4Ulc5eVl4ZjRLZHRyazM5bnlhRTNUZjlYTTBKNWgyRGlRVzlDY3lEN3JjUHJ2Y2VVdEJRUXZpRFVSVWYvTUdtdGQyVVUvSEdINnEgSUlyWThUNnoxUis3TXNNTHB4K0tNa1V6dlJ4cFZoK0txanFqek4zRHlURUV6UXBtVHlCeFEwK01lZWlXOTdhUG95anF1TCtUZktaZyBCZkVHSXVwM2R3M01YWGNvK2tTTTRSdFBSSTRoZXVPWmMzZjBKUWk1eDFBSWJPcjJJcVF5WGJiVkg3dnlSRDlEczBLSk41QzROY255IHo3KzB3VCs1a0NVcFNFSGFQUDZTTjdiMm5iZWhKL1pFak9Hbm40d2NBQUFRU0REamVtUHBndjJsalRLWXc0YlBPTmtQWlhoUjA1ZGsgNSswYnBCOTdjYjEvU3FGS1VuRFRqRGFQdjJSamIzVCs5cjc0ZllrTVg1ZE5EQUpEYVFXR3dIY2pJMHlHRnpRRFNmWWNBSUQ0d3ZyZSBweWlLMmtHU1pFRTlRU3dvUWRvOGZzdUdudWo4TFgyeGU3T1ZBd0FBU2pYRUFaMENoKzlEVGd5UjVVRlFqYU54bWhQMEovdGg1ckFrIDV3SVJnT2ZXOVQ1TlVkVDJRcEtrWUtaWWJSNi9aVjFQZFA3V3Z0ZzlpUXhmbjIwY05ZN0dTclhLTmVQTUdsYnVNUlVDVFZVTy91c3UgWkZPRFdmTlZ0akVZWHRBTXBOaHpEa1RTcll2WDlVNHJwT2xXUVFqUzV2RmJ2KzZtNW0vdmk5MGR6L0Jqc28yRG9RaGJUNm8vMU9QZyBIeit3cXptNXgxVW96SzB2WVJydGh0ZEpGWDRvMnhnTUwyZ0hVdXk1QnlMcGh4ZC9YVGlTNUwwZ2JSNi9kVzAzZGMyT2djU2llSVlmIG0yMGNERVZZaTRiNGZPNVkwM05UcW93aGtpVGhQY2dKMHVLMHM0TjBadVgwY3YwU1VvVjNaUnVINFFWdElNV2VkNEJLUC96czE3M1QgS1lySyt5bCtYZ3ZTNXZIYjFoeWk1dThjU0N5S005eTRiT1BnaCtYNDdOS0oxdGJHY3IzWFlUTVZ6Qnc0WDJodGJxQzFDdXpWYWVYNiBKV1kxNGNzMkRzTUwybUNLUGErRFNqLzQ0c2ErVTcyQmlFYnVzUTFIM2dyUzV2SGIvbm1JdXNZVFNDek1WWTRTRGZIcGo4WmJmdEZVIGFmQkFPYktudGJraFZXRlV2enFybWx4Y29pYTJaUnNuZlVTU2ZlSFVJMy9jNmovYkc0aG81UjdiZDVHWGdpemQwRm5sN29yYzRBMGsgRnNZWXJpSGJPRWZrV0huZXVKSkhaMWNib1J3U3NIQm1MZTIwYUpmL3NONzhaSW1HMkpwdG5EUXY2UHp4ek5tN0E4a0gvckFsZnlYSiBPMEZjYmwrOVp5QisyOTVnY2xHT2NtUXNHdUtUZVdQTnZ6eTlsdHpsc0puZ1RibEV0RGp0NlZwU3ZiSzUxdnkwUlVOc3lUWU9MNHA0IExNM1AyaHRNL1RSZkpja3JRVnh1MzVpREVmckhCd1pUdDhZWXJpYmJPRU55ekswM1BkRmNaOW9KNVpDZUZxZWRIbU5TZjNKNmpjbGwgMFJDYnM0M0RpeUllVFhPejl3WlRQMzA5RHlYSkcwR095SEY3VnpSOWZaemhzMTR1ZlVTT2o4K29KWi82NFJnemxHTUVhWEhhNlhGbSB6Y281MWVRelZvMWlVN1p4aGlUWkYwejk5UFhOL25uNUpFbGVDSEtNSEZrdmt6NGl4NG81TmFUcm5IRWxPeHcyRTN3Wk9NSzBPTzJwIDhTWGFUMmRWR1JkYk5ZcU4yY2I1bHlTaDFFOWV5eU5KWkJka1NJNURVVVlLT1Q2YVhXMTg1dnlHa3UxUWp0R2p4V2xQVHJSb1Y4NnMgTkQ1bjFlWXN5V20rUEpKRVZrR09saVBHY0xuSm9TVStuRmxsWEh6aGVBdThjc2hBaTlPZW5HVFZmdHBrTnp4bjB5bzJaQnNuM3lTUiBUUkFwNWJCcWlRK2FLZ3pQWFRUQnN0MWhNMlhrR3RQM25SYW5QZUcwNlQ2ZFVXNTQzcVpWck04Mnp0R1MvR25yb1FzM2RYdE5jbzFKIEZrR2tsbU9HM2ZEQ0pST3RVSTQ4b01WcFQwd3UxWDA2dlZ6L2doU1NlQUwwZzMvWnlWM2Q1dkdYeWpHZVVWMExRMUVVL3Z6R1BzZmUgVU9xVy9rVG04bmp1Y3Z6Zk5Mdit4VXNuV2JkQk9mS0hGcWM5MGVieGZ5YUtBTm5XSDc4dmtNek16aVlPTDRwNGhCWm43QWt5V2lCRyBGRzBlL3pzdFR2dW9Wa3dadFNzSVJWRzRhMjNQOUk1QituNS9qTGxPQ2prYXkvVXZYVGJKQnVYSVExcWM5dmpVTXYybmpXWDZsMHExIGluVzV4SW94M0lROW9lU2RxN3NpbzM0bEdSVkJodVRvakRMMzlTY3pseVJaM3B4dHJDRTVwcGJwWDdyY1lkc0s1Y2hmV3B6MmVHT1ogL3RNcHBaSklNbjVQTUhublY0Y2xzWTNXR0VaY0VJcWk4R2VPeUJHazJRdlRXZXhLRytLSUhPOVBMZE8vZElVVHlsRUl0RGp0OFdubCArcyttbHFrWGwrdXhUM0VVeWZwM0ZtTzQ4YnNQUzNMTmFFa3lvdmNnRkVYaHozemRPKzNnditVNGJ0bVk3MHdVUlRKV3JlTDlLV1c2IEpWYzQ0YlNxa0doeDJtT2J1cjJmSzNGTmRMTS9FdzBtTTVkeWdxaklKdGFRSkFnQW9NM2pmN3ZGYVErTVpPNGpKZ2hGVWRpelgvZE8gTzBpbDd3L1M3QVhTeUtGZGN1WGhLMGZSRmtzdVZwcXFIQ2x2SUxJdUl3d3dPL3NCeUZVU2J6QzVFRUdRRVpka1JBUVprcU5EUWprbSBsMnFYWE9rc2hYSVVNQTZiaWZFR0lsdEZjV0RKcm9HY0pXbndCQklMQVFDZ3plTi9xOFZwRDQ1RXpwTGZnMUFVaFMxZTE5dllRYVVmIERLYWtrK09xeVZDT1lzQmhNekZYVFM3ZE9ybFV1OFNxVmJ5ZjR6MUp3NjVBNGk1M1YrUzJwUnM2SzBZaVgwa0Y4UVlpNnQvdkRKN2UgRVVrL0ZFeXg1NmQ1S0Fma1A1RlNrampEamRzVFRON2hIWWd2Y3JsOVdXK1IrQzRrRThRYmlLaVg3K2lmKzFVWDlmaEFpcjBnZHptSSA5NmVVUVRtS2xTRkpwcFJwbDFpMVJLNlNWTzBQcDI3cWpqSUxYVzVmdFpSNVNuSVA0ZzFFMUcvdkhHamUxaGYvZVN6Tm44cUxZdFp4IC95MkgvdnR4UTY1SUFrUVovNC8vTFRKNkFES3lMMllkVVlidVNRQkFsdXpzajROZ2tzMzZuaVNSNFV2YkIxTUxFQVFnTHJmdmxkYm0gaG00cGNzeFpFRzhnb25wbjE4Q1pXL3l4UjJKcHZra0NPZjV2YXBuK1YwY2U1UmFkSE41QVJQL1IzeFpiNHZ3T2dKZ1BBQVJqQWNDKyA1WThucndBaWY2UytOamxXeDl0T05WSVVSWkFrV1ZRcmxZY2tRUUQ0MVk3K09CSk1zcGZrSW9rdm5GcUFBQUJjYnQvTHJjME5QYm5tIGwxT1BERzhnb3ZxckozRG14cDdvTDZOcC9oUkJBamtheTR2dkRUbEZVZmcrNmk5ajlvYy91ckEzdW5rT2swWW1jeHd6RGxGRlQranogQkthbEVJRHVONm5IcktrMzMvaVBFdTA1NjVxcUhHRzV4eVVsM2tCRThUZHZZUHIydnZoOXVVZ0NBQUJhQlJhWVlORXNzK3VWUzFxYiBHM3B6eVN0clFieUJpT3J2M3NBWjY3cWpUMGJUL0hRSjVQaGdXcm4reGN1S1NBNktvbkFmOVhaZCsrREhsL2hqbTgvTkNNbEpMSiswIENTS1gxYmtpTUMyRklScS9YbG0rc1pxOC9JTnl3eFh1cGlwSFJPNXhTb1UzRUZIODNSdVl2cTB2L3ROZ2tyMDRKMGtJTERqUnFsbFcgcmxlKzFOcmM0TTgyVGxhQ2VBTVI1ZnU3ZzJlczdhS2VqbWJSZnVCb2h1U1liamU4MEZKRXEzSTNkWHZKOXVDdkwreU5mWEJ6UmtoTSBaUGxVMW1JY0M0NnFFeGlxOWxzMEU3Nm9Nc3o1M1d6N3o3MGtTUmJGM250dklLSm8yeDJjdHRVZnV6OVhTVFFFRm5MWXRIOHEweWxlIGJHMXU2TXNteGtrTDRnMUVsQi91RFoyKyttRGttUmpEVDVOQWpnOW4yQTNQRjlPUzlWWHRqOWw3b3B0dTY2TFdMdUNGWkxWVVlod0wgZ1dtakJsWFZtaXJ5MHQ4MFdCLzZ5bUV6cGVRZXV4UjRBeEhGKzd1RDA3YjRZdzhFayt4RnVVcml0R21YbGVvVXo3YzJOL1NmN09kUCBTaEJ2SUtKY3NTLzBnMVVka2NVbjI5WHBXSWEyeVo1YVlYanU0aUxaN0VSUkZMYWg3N21KM2JHdjdoNUliTHNrd3lkSGZFRWRoaXJUIEd0enFxU0t2ZktXKzVOWVBtcW9jSjNaamsrZDRBeEhGQjN1Q2pSdDdZdytHY3BSRVRhRGhHbEw5VVdPcDFuV2p3OUpPa3VRSnQ3NDQgWVVIYVBINTlSNFMrK291TzhKMkhtMlhtS0llRytHaFdsWEh4ajRwa215eEZVZGpublhjMjlpZTNQaEdsRC8yQUZWS0cwVG8yaW1BYyBobXA2NjB6TmI5Z04wMStkTy9ieHJLWVQrWVkzRUZHOHNjVS9wb2RLTHd6UzNMVkpsczk2NjYwU1J4TjJyV0xWVkp2MndSOVBML1dkIHFDUW45S0t3emVQWDdRK25ydnQ0ZitpWE1ZYVRRbzRWcDFVYm4vM1JCRXZSVEt1KzZMcTdLc3AwM3h1aE84NGFUVGtBQUVBUWVaemwgNHpVSEkxOHU3S0o4WjNnREViWGM1ME1LSERaVDV1ZXpLL1pOc1dsZkxOY1NmOVlTV05ZUEpCaE8wUFhFbVhrN0Fza1hYdHMrTUphaSBxQlA2N2gvM2g5bzhmdTJCQ0gzZHl2YlFveW1XcnhpdXpmTHhHQ3JxOW9OYTBuWEJlRXZSbE9aWjFmNVlhVWFnYnV1TGI3NkVGeklxIHVmSmcrWlFsRUYvMTgwMmQ4eHNMcGYvRzhTQkpVdmp2R1dWZFRxdm1wWEt0NHM5YUFxT3lQaitDcU9xSk16L2MycC84MVI5M0JNYWMgaUNURC9rQ2J4Ni9wcE9qclYvaUN2NlE1SWFmbThFUGxRTStzTXoxOVhoRVZkZHZVN2RYM3hVTS82Z2gvZmdjbjBGbHZCcE9LRkJlYyBGTXQwUFBYdXZubFo5MUxKTjBpU0ZINDh2ZXpRRkp2bVJidE9Ha2syOXlWZWVYTlhzTzU0a256blA3WjUvT3J1YVByNkQvWUZuMGh6IFFsa3VBenpTbjJQbFdmV21KK2VOTlJlTkhCUkZZWHY3SDU3WVM3WGR6d3AwMXR1SXBVUVVlWXlpRC81QXB5aS9lVlg3WTZPMk5YV2sgSVVsU3VHMWFhZmRVbS9aNXUwN3hGdzJCVXRuR1lnVlIyUjFuNXE3dmpTOTl5eHVxb1NqcU8rL0Z2MVdRTm85ZjVZOHoxLzk5VCtDcCBOQ2ZrZEpLSFdoRE1HMnQrL0t3eHhTTUhBQUJzRDcxaUpuRDhpaVEza0hYL2twR0FGMWxGYjNUVDFUMlJ6V09LWmFvRndHRkpibW0wIDlVd3YweTZ1MENtWGF3ZzA2eWQyckNBcUQ4V1p1V3Q3WXI5OWIyKzQrcnNrK1E5QjJqeCt4VUF5YzhPNzNvRm5HRjZ3NWpJZzdFanogbXZNYlNoNDdzOGlxckZNVWhmVkVOdFYxUjlkZEpZcDgzbjBKazVtQktvSlFYTFk5OUhLSjNMbElDVW1Td2sxVGJEMU41VHBYcFU2NSBYSU5uTHdrbmlJcXVHTlBzN29xKzlvRnZzUExiSlBuR0M2dzJqNThJcDlnRmIrM3FYNXpoaFp5cTJRMzFCTHhvZ3VXUldWVkdUekhKIEFRQUEyME12bXdoQ2VXVXlFNmlTTzVkdlF3UUM1Z3V0K0hHVTlyOVBVVlM0a0Zvdkh3K1NKRVdLb3Z3NGlqeTF2aGNnUFhGbWZvb1Qgak5uRTRnUlIwUmxqenZ6c0lQV0dFa2NYVUJUbFA3cC81YjhFYWZQNGNTck4zYmhzcC84RmxoZXpPdGdRUitUNDRySkoxdFlaRmNYWiA5bXhyNytzV1hzaGNMUUpCOWdMZzN3VXZaUFNrdXZLeTdhR1g5d0VBUW5Mbkl5VkhKT2tqVU9TSmYzYkhrTzQ0TTUvbWhLd2VyL09DIFNIUkdtZE0vMmg5NVU0MmoxMUVVMVQ4a0NRb0FBRzBlUDViSThEZitZVnZ2UzFMSVVhSW12cng2Y3VuRHhTcUhOeEJSbGhvdW1wUmsgQXlPeXpWTktVaGxxZkNqWm50ZU5Nck9GSkVueGlva2wvV2ZWR2grck5pamZWdU5vTE50WXZDZ1NCNlBwMC8rNkovelc1cjZFamFJbyBBQUFBYUp2SGo2UTU0Y2JmYmVsWndnbGlUbzhwajhpeDZvWnBaUTlNS2RNVmJUZlpZT3czZWdVYVBqMmZyeDVESElxdW5qZVlhcThzIHBwdjFveUZKVXJ5a3dSdzRyOTcwU0xWQithNGFSK1BaeHVKRkVlK0lwdWNzMnhYODY3NHdiYVVvQ3VBVnBLTHh2ay8yLzVvWHhKeisgeW1BSXdwV29DZmN0cDlqdkcyTlc3M0hZVENlODNxWFEyTkx6cW9rWE0xZkpuY2VKSUlpY2d0UlVYYkV0dE1RSGlteWFOY1NSNlZaUSBpU00vKzhBM2lIVEdtS3V5TFZBb2lDSitnS0pQZTNOMytIVVVBUzM0bTl2N241SkNEck1HWDMzbnpJcDdLNDJxdmNVc0J3QUF4RE85IENoR0FuRjZjamlZSVFCUUFpRGx0anN0M2prZ1MxdURvUTIvdkRnMUprbFZkQkVFRTJMYSsyQVdMNXhuT1FiZjRZK2ZsbXB3U1I3ZmQgTjZmNnJrcWpxcWl2SEFBY3Z2K1lVSHJmK0VMNndpVXk0YnBRb2wwcGR4NGpEVW1TNHN3S2Zmald4dEw3YXcycTkxUVltc2cybGlBQyBiSFVYMFlLS1ltNlZUZlJLL05BbEUyMi9zMm9WK3h3Mms1aExyRUlneGZoeEhORVcxQnRxaG91WWsyeGZVZDZESEF0SmtzQmgxVVJ1IGJTSmVKVER4WUM2eGZJSFVLVG5mWkNJQXBLdjB5cjd2Z3h5UXdvQWtTYURBd0laNFJzeHAzNzR2UWsvTFdSQVJBRlYzbkNuM0JpSUYgTStXQUZEOFpIc3pVSzVHY1ZoSG9GZGdnaWlBZ3AzdUdWSWEzZjNFZ2RHMkVac2NQUFR1R1FPVEU1ZmJoeTNjSlYvSUNtdE1xaC9GVyA3V2Ewd2FUZW5Fc1FYaFR4T01NM3ZiNng5OEcxUGZHUzRWWkdGZ3NpRUFycVFRUUNFQUZCOHY2VmpTUzQzRDVGaGhmdTJ4OU96VSt4IFBKbHRIQlFCL0JuVnBuZlJDOGZiZm91aFNFNmIvZE9jb091TU1WZjhkVTlvOFpjSG81WmlsbVNjdm9LT0pML2NLWGNlSjROWk0yWmIgTlRtbktBbzZESWZMN1ZPbU9lR2VkZDJ4ZStJTW4vVmplQlFCL0JoU3ZXN0Yzc0FiS0k0aWJ5eHNxbHFFNXk2Si9sQ011ZXJEOWtIWCBpdmFJclZnbElVbFM2RXRzanFJSVhrQmJoUkVXQVhoUlAwUnh1WDNxRk12ZnZhRW5kazh1blpOUkJPSEdrT3ExQzJlVVhiYmtuRG9lIGJYSGF4VUdHVzNicHBOSm5DUlNoYzBtU1BpTEo1eDNVazIzN0JrdUxWUktIN1pwWURUbjNNN256T0JFUWdBb1p3ZnhQcStHdXJKZGcgNURzdXQwK1R6UEFMTi9mRzc0NHhYTmJyNHpBRTRlcU5xalVMSmx1dkdsK2lEcElrZWZnZHlNS1p0UnpEY292bjFwbCtoNk5JVHZWdyBhVTR3SElvelY3dTdvbysvdXlkVVZveVNXTFJqMHhxRmFZL2NlWndJV3NMV014QmJzYnNZNnh3REFJREw3ZFBHTS95ZFcvcmlkMGNaIHJqTGJPQmlDc0hWRzFWZFhUaXk1OXBSeVhZQWtTUURBVVJ1bVdwc2JNaFREdFRwTGRSL21Vb29lZ01PUzlNU1pxOWQyeHg5YjdnM1ogaTAyU1JzczlFU3JWMDRhaGlweXV1S05CdGVtTXYwMnZ2TDJvNnZnTzRYTDc5REdHdTJON1gzeFJOTTFsL2NRS1I1Rk1uVkg1MVkvRyBtUmFjVVczb1Azby95RGNlYlR3K3A1SnVydFRmVzJOUXJzNzU4UzhuR0h2aXpEWHJlK08vV0xZcldGRk1rcEFrS1pnMUU3dXJqTTJmIHlKM0xjS0FJa1dGRjQxcXIvczZpbTE2NTNENUROTTNkdnFNL2NUZVY1ckx1Q1lLalNLYkdvRnc5cjQ2OCtkeDY4aHVicFFBNFJoQ1MgSk1WejYwbi9qSExkN1FZbHZoZVZRSkxlQkROL2MxK2k5WTg3QXBVbldvdW9FS2d4M3hkUkU1TldZS2dpTFhjdTMwV0padnhXbXQyeiB3MkV6NVcyTzJlQnkrNHlSTkhmYnJvSEVvaHpsWUdvTVNuZHpqZkcyaXh2TVBjZktBY0MzN0VrblNWSThaNEsxNTlvcFpiZnBsZmp1IFhBZVRZZzlMc20wZytmQnIyd2VLUnBLbUtrZVM1UStzS3RWTys2ZmN1WHdiR0txa3pacm0xeHZMWHozcGVyVDVqTXZ0SXdkcDloWnYgSUhGWEpNMWwzWEtOUUJHbVdxOWNOYWZTY01jVkUwb09mWnNjQUh4SFZST0h6Y1ROcU5CdnZIaUNaYUVLUjNNdVk1bGlCZEtmeUZ5NyBZeUQxNE8rMkRWUVZpeVFUYk04R0RhcFQzOFpSZGQ1TllXemF5VzVlNlB4SFU1VWo2eFd0K1liTDdUT0ZVK3gvN1E2bUZrVm9yamJiIE9BU0twS3YweW4vTXF0RGZOZDloNmZvdU9RQVlwaTZXdzJiaXlyV3F6UmVQdHo2cUp0Q3MreXNNa1dSNXNpK1p1VzVYSUhYL2I3ZjIgVnhlREpFMVZqZ1NCUmordk1NeHN5NmVwRm9GcFFscmw1TmVtVjcyWjgrOHRYM0M1ZmFaUWlyMTVieWgxVjRSbWE3TStOeWlTcnRRciB2enlsWEhmM0RaT3RCNDlYbzNmWUwybUwwNTZxSmRWdm5UL1c4b1NhUUFkekhlUVJTYTdmTjVoZTlGRUhWVHBpWjNNVU9idm1GVCtwIEdyUEVwRzVZaHlLNDdKVmJDRlFUcXplZi9kdEtRL1dhWXJuM2NMbDk1bUNTdldsZktMVndrR2Jyc28yalFCRzZVcS84WW5xWjlyNmIgcDlvNlRxU0E5WEgvaXJjNDdVbFdFUDQ2bzl6d21vYkFCbklkYkpMbHlVQ0t2WFJ6WCtJYWw5dFg4RFdiU0pMa3g1ZTlzTGRNZDk2TCBHcUpNMW5jakdLcWtTM1dONytHSTdyVzVZeDhQeUgxdXBNRGw5cFVFa3BrYmZlSFVYWU0wVzU5dEhBV0cwQlY2NVJkVGJkb0hibTBzIFBlRVdDQ2MweldsdGJoaXNOV3VlbVYxTnZxd2xzRU81RG5xUVp1dmJ3L1RDZ1dSbWdjdnRzMGgzT3VYQllUUFJ0ZWFidnlvM25QZXkgQXRQSmNsT01vMHFhVk5ldUVoSCsrYXNhbDNmSmZVNmt3T1gyV1FhU21RWHRZWHBocm5MWXRjclBuVmJOUXlmVCtnQ0FrK2lUdm5CbSBMVFdqVFArYnVYWG1wN1VLckRQWHdZZHBkc3lCUVhyaFFDSnpRekZJMGxUbGlGY1lLajZxTmMxOWhVQjFlMUVFSDdVU3F3U21wWXlxIDZwVTJ6WlJIcmhyLzZYNjV6NFVVdU53K3kwQWljOE9CUVhwaG1HYkhaQnRIZ2FFcHUxYjVtY09xL3RtZE04cjJuWXdjQUdUUmdxM04gNHpkNEFvbjVYM1ZGSGtwaytLem5nME9VYUlnRDlTYjFiOHAwaXIrME5qY0VjNDBuTjk1QVJMT2o5OEhtSHVxREJ4aysyc1FKNlJHdCBTYVhFOUgwMjNaVDNEY3FhRjY1cVhONGg5L2lsd09YMldmc1RtZXM2SXZSZDRWVDJjaWd4TkZXbUpUNmJaTkU4Y25kVCtaNXNxa3RtIDlYYTd6ZU0zN2h4SVhMUG1VT1RCUkliUCt0STNSSW1HYUs4enFaZVdGNGtrRkVWaEgzZmNQQzFFZTMrYVpBSS95UENKVWtIa0NDbVAgUVdDYU9Jb29PeXFOTTkrdE1zNThZKzdZeDR2aWlaWEw3YlAySlRMWEhZelFDOE1wTnVzV0RrZmsrSFJDaWVheGUwOHQzNTF0NmRXcyBsMyswZWZ6azl2NzQxZXU2cVFmaUdUNXJ5NGV3YUlqMldsSzF0Rnl2TEFwSkFBQmdWZnRqRmYzeEhWZjZvNXZPWVlUWVZJYUxaNzBNIGV3Z2NWYVZ3Vk5kbFVGYXNxVEpkOHZZWXkwODJPR3ltcE54amxRS1gyMmZ0aXpQWGRWTHBoYUhjNUVpV2FZbFB4NXZWai85a3B0MmIgUzEzaW5OWkh0WG44NU5hKytEVWJlcUkvaldlNG5CdTJIQ1hKOHRibWhxSjRDa05SRkw2UFdsN25EYnpkMHAvWWZnR09xdTBzbjdSayArTVFKRndkSEVaeFZZTG9CQkNHNlZZUnhiNlh4NG85cXlGdFdGVk9QZEpmYlordUxNOWRLSk1mS0JyUDZ5ZnRtMmoyNUZ1M09lUUZoIG04ZHYydXlQWGJhK0ovcmZEQ2RNNVVVeHA1YkhGZzNSWGtPcWx0cUxTQklBRG91eWwvcHpmVGpsbTlsRnJYWkcwMTFOQkthMmlxS28gRUVST0t3TGhHK2NOUmJBa2l1QXBYaEJpQUlCRDVmcXA2OGRaYjExclVNL2I2N0NaaXVidE9BQ0g1ZkRIbVd1N0pKQ2pWRXQ4TXM2ayBmdnIrV2ZaZFVsUzBsMlNGclRjUVViMjljK0RNcmY3NEw2SnBicFlFa3V5dklWWC9VMnlTREVGUkZMNG44cWV4YVg1d1lqSVQxa1hUIGg2d3NuL2hHYjBPOXNpSmcxdFNIbFVSRGoxRjl3VjZIelpSM3kxbWs0Q2c1N2d5bDJLd2JFYWt3TkdIVEVwK01OYW1lZVdCV3hVNnAgMmoxSXRnVGRHNGlvbCsvb1AzTjdYNkkxbXVabVEwa2d4ME5TT1RURUoyTk1xbWNmbkYyeFE4cGVLSkt0aDNMWVRQUzFVOHRXVHkzWCBQV05VNFY5akNKTFRzb3RRaWgzWFJhWHY5TWVaYTExdVgwRlZNb1FjSDhua3dOR0VUVU44WEc5U0xaWmFEZ0FrRkFTQXc1SmNON1hNIFBhVk05NnhSaGErRmtrQytEU25sc0txSkZmV2s2dm1IWmxkc0g0a3VXcEt2cUhYWVRQVDFqV1h1eWFYYTU2QWtrR01aQVRsZWVPaTAgaW0wajFXSnVSSmFjTzJ3bStvWnA1VzVucWZZNWk0WllwY3FocVFrQS81WWtrR1N2V0xxaHMrQVhPSDVma1ZxT09sTDE0c01qS0FjQSBJeVFJQUFBNGJLYlVnbW5sN2xNcjlFOWIxY1JIdVhUK0FlQ3dKQjBSK281dWlqNi96ZVBQcWhjZFJENGtsQ051VlJNZjFaSEtGMzgyIHduSUFjRXlYVzZseDJFd3BpcUxXUEVOelNRQ0FHS0xaaStnc08vOEFBRUF3bVptOEI0Q0ZPSXBrMmp6K2xTMU9lOVk5NlNDang1RTMgNURtLzV6Z2l4NHBhby9KWFB6dXRjaHRKa2lPKy8yWlVLbzFRRklVOTgzWFB0SU1VODVOY0pRRUFBSnRXc1dGS3FlNmw2ZVVHS0VtZSBJOVh5RWEwQ0c3U3FpWStyOUlwZnQ4NnAzRG9hY2dBd1NvSUFjUGpsMkROcmU2WWRqREwzU2lYSjFGTDlTOVBLOVZDU1BHVm80V0ZuIGhNNUpEb01TOTVmcUZPOVZHWlN2UDNCNDRlR283ZHdjMVZwVkZFWGhyclU5MHpvbGtzU3FWV3lZVnFaL3FiRk0vMG1MMDE2VWI1b0wgRlpmYlorbFBaSzd2eUhGVnJrR0orNnVOeWpmclRPcmZ0elkzSEJqdGNZeDZNYmVqSkxrblJMTVhTeURKeHVubCtoZW5sa0pKOG9WLyBiWFk2TEVmV0s3M2xsZ01BR1FRQjROK1NES1RZVy9xVDdJOXlLVGdNQUFCV2pXTFRETHZoaFNtbHVvOWJuUGFpV3NoWGFMamN2cEtCIFpHYkJnY0hDbHdNQW1RUUI0TEFreTd5aCtsMkIxRTJIb3VrRlVralNWR0Y0M21uVGZRSWxrUWVYMjJjT0pETTN0b2R6MnlhYkwzSUEgSUtNZ1E3amN2dnFEVlByV1ExVHVrbGcweE9hWmxjYm5IRmJkeHkxT2UxRnNJaW9VWEc2ZktaaGtiOHExK2tnK3lRSEFDTDRvUEZGYSBteHM2NmtqVjcydEkxVEtERXUvTkpWWW94WjZ5b1NmNjBKNVE4b0kyajE4cjk5aStMd3dWZGN0VkR2Mi81ZmhkUHNnQlFCNElBZ0FBIHJjME5CMnVsazJURzE5M1VRL3RDeWZQYlBQNFJMWmdBT1Z3ck41eGliOTRYeWxVT3pGOURxb2JreUp2aUUza2hDQURma09STmd4TFAgcVFCQk9NWE9XTk5OL1d4L09IVUJsR1RrY0xsOXhrR2EvYTg5b2RTaVhDb2U2cFZZWHkycC9uTWRxY29yT1FESWczdVFZM0c1ZlhVOSBzY3lDQTRPcG0ySk05Z1dLQVFDZ1JFMXNhNjR6dThhWTFDdGFuUGE4YjNaVFNMamNQa01remQzbURTVHV5cVdROUJFNTNxd2xWYjl0IGJXNDRLUGU0amlYdkJBRUFnS1ViT2l2YlE4a3JkZ2VUZDhRWWJud3VzY3hxWXZ2WjllYW5ha24xaWhhbnZTaHExY3FOeSszVFI5UGMgN2JzR0VvdHlhVUdnVjJKOWRhVDZ6Wm84bFFPQVBCVUVBQURhUEg3cjJtN3FxbDBEaVVVU1NMTGovSWFTMitiV203WTViQ2JaQzB3WCBNaTYzVHh0anVEdHk3ZXlrVjJEOWRTYjFzaHBTOWIrdHpRMmRjby9ydThpYmU1QmphWEhhZzNPcXlIZW1sT3ArYlZEaXZseGlEZExzIDFNL2F3MDl1Nm9rNXZZRUlKdmZZQ2hXWDI2ZUpaL2ovemxVT25RTHJyemZudnh3QTVMRWdBQURRNHJTSFRxc2kzNWxhcG44bGQwbTQgczlwMkJ4ZHY3NHREU2JMQTVmYXBreG4rem0xOThaemxHR3RXdjFsdFZQMVB2c3NCUUo0TEFzQmhTV1pYR3Q5cExOTy9vbGZpV1JkbSA1Z1dSQ05QczNIZDJCWjczQnBJT2J5Q1M5MlBQRjVadTZGUWdLTHBnaXo5K1R5N2RaSFVLYkdDc1dmTm1sVkcxdExXNW9TQXEwQmZFIGw2VEZhUS9OcWpTK1BhTmN2MFN2d051empjTUxJakZJczgxcnU2S0xsbTNyVjJVYjUvdUVOeEJCU3pUWXhOVUhCeC9LcFErNVRvRU4gakN2UkxLc3lLbjlUS0hJQVVDQ0NBQUJBaTlNZVByWEMrTTdNU3VLSkVnMjJGYzJ5R0FRdmlJUjNJSEg1bERMdGVIZ1ZPVDdydStPNCBQOGFlRjAxeldiL24wQ3F3UUVPSlpsbWxRZm5yMXVhR25QdkxqQ1lGOVFWcGNkckRGMDlRdkg5S2hlRVJvd3Jibkswa1NaWTNxYkJFIFRUb1RMS2p4eThIZVlBTHJvdWc1Mlg1ZXE4Q0NFeXlhWlJVRzVTdXR6UTNkY28vblpCblJQZWtqUVZPVkkrNE5SUDRCQU1wdjdJaysgSGszek00UXNxamgyeDRoR2lzRStsbnM4K2M3ZVlCSVRBWmlXeldlMUJCYWNhTkg4cVZ5dlhOTGEzSkRURWlLNUtNaS9vQTZiS1gybCAwN1o2ZHBYeFVhTUsyNG9peUVsWHRqQ3AyTzRLUFN1ZTdPZStiMWkxQ3RHc0prNjZyWnlHd0VLVGJOby9sZXVWdnlwVU9RQW9VRUVBIE9DekpaUTdiVjNPcXlWOFlsU2N2Q2NzaEc4Y2FWU05hTXFZWW1HRFY4ZlZtemRhVCtZeUd3TUpPbS9aUFpUckZTNjNORFFYZDJLZGcgQlFIZ3NDU1hUckorZFVhZHFkV2d4TGFmcUNTTlpicFBCbW5za0VWcFBLbCtkZDlIR3N0MVhMVlJlY0pUVVRXQkRrNHUxYjVScWxPOCAwTnJjMENkMy9ybFMwSUlBQUlERFptSXVtbUQ1NTFuMXBvY01TbXdIaW9CaEpWSGphR0pxdWY0UEUwdDFLWklrNVU0Lzc2a3dLSGdjIFJkYk9yQ0tYSCs5bjFUZzZPTFZNLzRaTnEzaXV0YmxCbG02L1VsUHdnZ0J3V0pJTHhsdldPS3lhbTJaV0d2OVhoYVBmMm5scGpGbTkgZFc2OWFXR0ZRZmw1dlZrTjEyU2RBQTZiU1l4bmhNRUtnL0xSMmRYa245VTQraC9ibVZFRThHWTFzZi9zK3BKSHJScmkyV0pxVjVHMyBpeFd6Z2FJbzlOVWRRYk1BeEJrcFRwd25pa0RQc0x4UmdhTnhzNXJaRlV3aW41NVJaKzJ1SVZXMHcyYUNOK2dud2RJTm5TakQ4YVdCIGVIcXNVYVdZbCtTRVVnQUFRQkhBcWpIMEFFVm52cHhWWlRwWWJKVmxpa3FRSWJ5QmlHTHRvWmlXNVVVc25tWlJyUklYSnR2U2FTMGggSkp1cUhGQ01MS0VvQ3ZRa09IelBJS01MMEN3T0FBQTRpb2hsR2lKelpvVW1lYkk5eUNFUUNBUUNnVUFnRUFnRUFvRkFJQkFJQkFLQiBRQ0FRQ0NRditYOXpNV0ZqWkNMYm5nQUFBQ1YwUlZoMFpHRjBaVHBqY21WaGRHVUFNakF5TUMwd055MHhNRlF3T0Rvek9Ub3lNQ3N3IE16b3dNSzVnRU04QUFBQWxkRVZZZEdSaGRHVTZiVzlrYVdaNUFESXdNakF0TURjdE1UQlVNRGc2TXprNk1qQXJNRE02TUREZlBhaHogQUFBQUFFbEZUa1N1UW1DQyIvPiYjeGE7PC9zdmc+;" parent="1" vertex="1">
          <mxGeometry x="1110" y="316.5" width="35" height="35" as="geometry" />
        </mxCell>
        <mxCell id="EMYNUx44aLwSDeEjnDvy-11" value="*Network Link: Required for name resolution only" style="text;html=1;strokeColor=none;fillColor=none;align=center;verticalAlign=middle;whiteSpace=wrap;rounded=0;" vertex="1" parent="1">
          <mxGeometry x="679" y="520" width="281" height="30" as="geometry" />
        </mxCell>
        <mxCell id="t-lk_YIIwEsfysXy30gr-8" value="Use" style="endArrow=open;endSize=12;dashed=1;html=1;rounded=0;entryX=0.5;entryY=1;entryDx=0;entryDy=0;exitX=0.5;exitY=0;exitDx=0;exitDy=0;labelBackgroundColor=#DAE8FC;fontSize=10;" parent="1" source="t-lk_YIIwEsfysXy30gr-4" target="t-lk_YIIwEsfysXy30gr-5" edge="1">
          <mxGeometry x="-0.2453" width="160" relative="1" as="geometry">
            <mxPoint x="290" y="440" as="sourcePoint" />
            <mxPoint x="450" y="440" as="targetPoint" />
            <mxPoint as="offset" />
          </mxGeometry>
        </mxCell>
        <mxCell id="t-lk_YIIwEsfysXy30gr-10" value="Use" style="endArrow=open;endSize=12;dashed=1;html=1;rounded=0;entryX=0.75;entryY=1;entryDx=0;entryDy=0;exitX=0.5;exitY=0;exitDx=0;exitDy=0;labelBackgroundColor=#DAE8FC;fontSize=10;" parent="1" edge="1">
          <mxGeometry x="-0.0584" y="-1" width="160" relative="1" as="geometry">
            <mxPoint x="379" y="414" as="sourcePoint" />
            <mxPoint x="380" y="363" as="targetPoint" />
            <mxPoint as="offset" />
          </mxGeometry>
        </mxCell>
        <mxCell id="EMYNUx44aLwSDeEjnDvy-13" value="Storage" style="shape=image;verticalLabelPosition=bottom;verticalAlign=top;imageAspect=0;aspect=fixed;image=data:image/svg+xml,PHN2ZyB4bWxucz0iaHR0cDovL3d3dy53My5vcmcvMjAwMC9zdmciIGlkPSJmMmYwNDM0OS04YWVlLTQ0MTMtODRjOS1hOTA1MzYxMWIzMTkiIHdpZHRoPSIxOCIgaGVpZ2h0PSIxOCIgdmlld0JveD0iMCAwIDE4IDE4Ij4mI3hhOyAgPGRlZnM+JiN4YTsgICAgPGxpbmVhckdyYWRpZW50IGlkPSJhZDRjNGY5Ni0wOWFhLTRmOTEtYmExMC01Y2I4YWQ1MzBmNzQiIHgxPSI5IiB5MT0iMTUuODMiIHgyPSI5IiB5Mj0iNS43OSIgZ3JhZGllbnRVbml0cz0idXNlclNwYWNlT25Vc2UiPiYjeGE7ICAgICAgPHN0b3Agb2Zmc2V0PSIwIiBzdG9wLWNvbG9yPSIjYjNiM2IzIi8+JiN4YTsgICAgICA8c3RvcCBvZmZzZXQ9IjAuMjYiIHN0b3AtY29sb3I9IiNjMWMxYzEiLz4mI3hhOyAgICAgIDxzdG9wIG9mZnNldD0iMSIgc3RvcC1jb2xvcj0iI2U2ZTZlNiIvPiYjeGE7ICAgIDwvbGluZWFyR3JhZGllbnQ+JiN4YTsgIDwvZGVmcz4mI3hhOyAgPHRpdGxlPkljb24tc3RvcmFnZS04NjwvdGl0bGU+JiN4YTsgIDxwYXRoIGQ9Ik0uNSw1Ljc5aDE3YTAsMCwwLDAsMSwwLDB2OS40OGEuNTcuNTcsMCwwLDEtLjU3LjU3SDEuMDdhLjU3LjU3LDAsMCwxLS41Ny0uNTdWNS43OUEwLDAsMCwwLDEsLjUsNS43OVoiIGZpbGw9InVybCgjYWQ0YzRmOTYtMDlhYS00ZjkxLWJhMTAtNWNiOGFkNTMwZjc0KSIvPiYjeGE7ICA8cGF0aCBkPSJNMS4wNywyLjE3SDE2LjkzYS41Ny41NywwLDAsMSwuNTcuNTdWNS43OWEwLDAsMCwwLDEsMCwwSC41YTAsMCwwLDAsMSwwLDBWMi43M0EuNTcuNTcsMCwwLDEsMS4wNywyLjE3WiIgZmlsbD0iIzM3YzJiMSIvPiYjeGE7ICA8cGF0aCBkPSJNMi44MSw2Ljg5SDE1LjE4YS4yNy4yNywwLDAsMSwuMjYuMjd2MS40YS4yNy4yNywwLDAsMS0uMjYuMjdIMi44MWEuMjcuMjcsMCwwLDEtLjI2LS4yN1Y3LjE2QS4yNy4yNywwLDAsMSwyLjgxLDYuODlaIiBmaWxsPSIjZmZmIi8+JiN4YTsgIDxwYXRoIGQ9Ik0yLjgyLDkuNjhIMTUuMTlhLjI3LjI3LDAsMCwxLC4yNi4yN3YxLjQxYS4yNy4yNywwLDAsMS0uMjYuMjdIMi44MmEuMjcuMjcsMCwwLDEtLjI2LS4yN1YxMEEuMjcuMjcsMCwwLDEsMi44Miw5LjY4WiIgZmlsbD0iIzM3YzJiMSIvPiYjeGE7ICA8cGF0aCBkPSJNMi44MiwxMi41SDE1LjE5YS4yNy4yNywwLDAsMSwuMjYuMjd2MS40MWEuMjcuMjcsMCwwLDEtLjI2LjI3SDIuODJhLjI3LjI3LDAsMCwxLS4yNi0uMjdWMTIuNzdBLjI3LjI3LDAsMCwxLDIuODIsMTIuNVoiIGZpbGw9IiMyNTgyNzciLz4mI3hhOzwvc3ZnPg==;fontSize=10;" vertex="1" parent="1">
          <mxGeometry x="1047.5" y="422" width="40" height="40" as="geometry" />
        </mxCell>
        <mxCell id="EMYNUx44aLwSDeEjnDvy-14" value="" style="shape=image;verticalLabelPosition=bottom;labelBackgroundColor=#ffffff;verticalAlign=top;aspect=fixed;imageAspect=0;image=data:image/svg+xml,PHN2ZyB4bWxucz0iaHR0cDovL3d3dy53My5vcmcvMjAwMC9zdmciIHhtbG5zOnhsaW5rPSJodHRwOi8vd3d3LnczLm9yZy8xOTk5L3hsaW5rIiB2ZXJzaW9uPSIxLjEiIGlkPSJMYXllcl8xIiB4PSIwcHgiIHk9IjBweCIgd2lkdGg9IjIwMHB4IiBoZWlnaHQ9IjIwMHB4IiB2aWV3Qm94PSIwIDAgMjAwIDIwMCIgZW5hYmxlLWJhY2tncm91bmQ9Im5ldyAwIDAgMjAwIDIwMCIgeG1sOnNwYWNlPSJwcmVzZXJ2ZSI+ICA8aW1hZ2UgaWQ9ImltYWdlMCIgd2lkdGg9IjIwMCIgaGVpZ2h0PSIyMDAiIHg9IjAiIHk9IjAiIHhsaW5rOmhyZWY9ImRhdGE6aW1hZ2UvcG5nO2Jhc2U2NCxpVkJPUncwS0dnb0FBQUFOU1VoRVVnQUFBTWdBQUFESUNBWUFBQUN0V0s2ZUFBQUFCR2RCVFVFQUFMR1BDL3hoQlFBQUFDQmpTRkpOIEFBQjZKZ0FBZ0lRQUFQb0FBQUNBNkFBQWRUQUFBT3BnQUFBNm1BQUFGM0NjdWxFOEFBQUFCbUpMUjBRQS93RC9BUCtndmFlVEFBQUEgQ1hCSVdYTUFBQTdEQUFBT3d3SEhiNmhrQUFBcGxVbEVRVlI0MnUyZGFYZ2IxYm1BejJ6YWw1RXN5YmE4TzRtelNFbWNCSk9FRkhBbyBZUzJMMmNNUzRMS1VTd2hReWxhM1FOa0VZV3VnemIybGhaYUdOaXlsTlJjSWhLMVJhRUwyWGNxaU9JNGQyN0t0eFJxdG85RnM5MGZpIE5xVGdKTkxZSTRuei91RjVpUFhOZDhaNlBXZG16dmsrQUNBUUNBUUNnVUFnRUFoazlFRGtUdUQ3Q2tWUlNFOHFpTzRaUlBCQUVzY0cgRWd3YW9WbFVwOEJFaTBZaHFBaE10R2dJemxtcTRSdzJreUIzdnQ5WG9DQ2pDRVZSeU9aQUd1dWcwc3BBSXEyM2FkbHhHUkZ2aWpORSA5U0RObHNZWTFxN0dzYWhKVGZRcE1KUldFK2h1VVJTK0NpVFl2aG1WaHZSRXE0YUZzb3d1VUpCUm9zM2p4K04waGt4eVFpUEY4UE4yIERNVFA2cUxTcHh6dmN5WVYzamV1UkxPdXhxUmVxY1FSdDA2QjlaeFNZV0NnS0tNREZHU0U4UVlpYUpzbm9BRUFtUnBOY3pmdURpWXUgSEV4ejlteGkxWktxalk1UzNac21OYkVTQUtScjRjeGFWdTd4RlR0UWtCR2t6ZVBISXd4YjdlbVBYK01MMDNlR2FiWkNpcmhqU3pSZiBWSlBxeFFwRS9QcWVHV1UwU1pLaTNHTXRWcUFnSThUU0RaMEtodVduK3NLcHUvY0VrNWRuZUVFdFpmeHl2ZEpYWTFDNnBwWnFQMnFxIElTTnd5alV5NEhJblVJeTBlZnpFbm5EcWxIMmg1R08rVVBLY2tUaEdYNXhweUhEQzB3b01MVlVRMkRLS29nYmdsVVI2b0NBU3M2bmIgaTIvb1NVeHNEOU9MUmtxT0ljSTBXK0VOSmhjbE0xeHdNSlY1RHdBUWwzdjh4UVlxZHdMRkJFVlJ5QlkvWDdGeklIcjdubUR5bXRFNCBacGhtSy8xSjl1RjlnK2t6bG03b1ZNcDlEb29OS0lpRXJPaUlhamYzQ21mN1F2ek5vM25jdmpqVEVFM3o5MFJvMXVFTlJEQzV6ME14IEFRV1JDRzhnZ3UwZHBDZlNuSGdMd3d1YTBUNysvbkJ5WG44OGZkNytVSXFVKzF3VUUxQVFpZGdYVEJtakRQZkRqZ2c5VzY0Y0JtbnUgb2kzKytCaDRGWkVPS0lnRVVCU0ZmTjFGVllXUzdDVnk1bkV3UXM5S1pQZ3p1eWpHSVBjNUtSYWdJQkt3Szh5b1lndy8rV0NFbmlWMyBMcW1NY01ibW5waEY3anlLQlNpSUJCeWdHQk9wd2srVE93OEFBT2lKMHRQOXNiUWRUck9rQVFvaUFWdjhVYU0vd1RUS25RY0FBQXltIE9idFdpYy9zR0V6RGFaWUV3QmVGRXVBSkpBMkNDQnJsem1NSUVRRG5vU2lqQndCRTVNNmwwSUZYa0J6eEJpSllpWVl3U3IzV0toY0UgUVZTd3ZBQi90eElBVDJLT2NIeFNQZDZpcUpVN2o2TkpzWHhKS0psUnlKMUhNUUFGeVpFTUY4V1ZXRVl2ZHg1SFEzTUNHV1U0T0gyVyBBQ2hJanVBb3hpWXpDQ1YzSGtlanhOQ29Ub0Z6Y3VkUkRFQkJjcVJPVzBidkRmRUg1YzdqYUF3cTNGOXBWS1hsenFNWWdJTGtDRW1TIEFzMEtjUTJPUnVYT1pRZ2M1U05HSlErMzQwb0FGRVFDSmxtMThVcURhcGZjZVF6Qjg1bGRUaXNYa3p1UFlnQUtJZ0V6S28yREZwMWkgamR4NUFBQ0FTWTEzeGhoOFQ2MjJsSlk3bDJJQUNpSUIwKzA2aXVXRnI3VUVSc21kUzBPSlpzM1VNbjB2U1pKd2o3b0VRRUVrd0dFeiBaWEFFT1ZCaFVNbzZ6ZElTR0tYR3NIVmpTRFY4Z3k0UlVCQ0pHR1BSOWhtVStOKzFCQ2JibDdQU29GeFBLckcxczh2VmNHKzZSRUJCIEpHTGh6TnFJRGtkWFZobVU2K1U0dnBiQUlxU0srSHVEVmRjQnAxZlNBUVdSa0ZPcnlONXlnM0s1UlVPMGorWnhjUlRKMlBXS0R4VW8gK0xMRmFZZFhEd21CZ2toSWk5TWVMOVVTbjljWVZjdDBCRFk0V3NjdDFTazJqTE5vMzdqeEZIdVAzT2VnMklDQ1NNeU5Ea3ZRb3NMZiBJbFg0V3ppS1pFYjZlRmF0d3ROUW9uM1ZhZFZ0Y2RoTUkzNjg3eHRRRUlraFNWSzQ5OVR5RHJNYVgycFc0MzhjeVN1SlRhdFlQOUdxIGZhSENxUHFreFdtSEx3WkhBRmliZDRTZ0tBcjkxVWIvbU41NDVxYUJGSHRsS01XT2t5bzJqaUlaaXdaMVR5N1YvblphbWZsTEtNZkkgQVFVWlFTaUtRdC9aTjFpMkx4eWYxeGRqTGcrbHhEa0psamZuRXRPaUlkcTFCUFpoUXdueXQ0c21LTFkxVlRsU2NvK3ptSUdDakFLYiB1cjJhZnh6Z0p1d0ppZWVtZWVHU2NKSnRTTEM4NldSaWxHaUlBNlFLLzhxc0pyNllhTkdzbmovQjNBY2Y1NDQ4VUpCUlpPbUdUa3R2IE5PM3NhTjkvTlplSzM1RlFHRUJVK2QwWEZDTVRBYnBNRkJqMSt0MVdtL1hWQ1RYbEh6ZFZHcm9kTmhNajkxaStMOEJkWjZQSXdwbTEgSVFDQSs3NUhueHdQQUFBTXBnWXBRZ3NBQUNDREtVRUdVd0VBQUZEd2FhRGdHYUJoazBESjA2QmFZK3NkcjhJM25EOTkxcWkrWDRGQSBRV1JCeGRILytxK1JPZnlRaTBkeHdLRUVBQUFBWEdBQkp2eDdReUF1d0swZGNnRUZ5Uk13Z2Z1R0ZKRDhBTDRIZ1VDR0FRb0NnUXdEIEZBUUNHUVlvQ0FReURGQVFDR1FZb0NBUXlEQkFRU0NRWVlDQ1FDRERBQVdCUUlZQkNnS0JEQU1VQkFJWkJpZ0lCRElNVUJBSVpCaWcgSUJESU1FQkJJSkJoZ0lKQUlNTUFCWUZBaGdFS0FvRU1BeFFFQWhrR0tBZ0VNZ3hRRUFoa0dLQWdFTWd3UUVFZ2tHR0Fna0Fnd3dBRiBnVUNHQVFvQ2dRd0RGQVFDR1FZb0NBUXlERkFRQ0dRWW9DQVF5REJBUVNDUVlZQ0NRQ0REQUFXQlFJYWhxRHRNZVFNUkpRQWc0N0NaIFJMbHpLVFlvaWdLMEFQQkJUc1NLdWFsb1VRbENVUlQ2Nm82Z2RXMDNaUXFuT01WZmR2VFg3K3hQOU01L2EwdnNjb2NpVUdOQ28wMVYgRHRnNk9Vc29pZ0s3d21saXZUOXB2ZmZ6ZzBhMUFpc3phUWpqM05mWHR6ZFY2R0pYT3BCd1U1VWpLWGVlVWxJMGduZ0RFZVV2MTNSUCBFZ0Z5RzhlTEZ3TWdscTNxaUdBQUFFQm9GUjA3QnRnLzdCOVUvYzNsOXUxdmJXN2c1YzYzMFBBR0lzaG4zWEhEMms1cUZvWmhDNklNIFAydmZJRjBQQUFBS0RFMUYwdHpxTHp2RXQxeHUzMmV0elEwRGN1Y3JGVVZ4RCtJTlJGVC90eWQ0NXI0dy9mcG1mK3oyU0pxckVFU0EgRGYxN2Z6SlQvMFZIK3FtREZQZXlDSkFKU3pkMEZzVzRSd3VLb3NEMm5xaG1VMjk4L3M1QThyMTEzZFMxL2NsTS9kQy9aM2hCNHhsSSBuZjlaTy9OeUlKbDUyT1gybGN1ZHMxUVUvQmZGRzRpbzJuWUh6L3huSi9WTWpPR25IQzNHc2V3YVNKempqek9QcVhIRTVnMUVFTGx6IEx4Ulc5eVl4ZjRLZHRyazM5bnlhRTNUZjlYTTBKNWgyRGlRVzlDY3lEN3JjUHJ2Y2VVdEJRUXZpRFVSVWYvTUdtdGQyVVUvSEdINnEgSUlyWThUNnoxUis3TXNNTHB4K0tNa1V6dlJ4cFZoK0txanFqek4zRHlURUV6UXBtVHlCeFEwK01lZWlXOTdhUG95anF1TCtUZktaZyBCZkVHSXVwM2R3M01YWGNvK2tTTTRSdFBSSTRoZXVPWmMzZjBKUWk1eDFBSWJPcjJJcVF5WGJiVkg3dnlSRDlEczBLSk41QzROY255IHo3KzB3VCs1a0NVcFNFSGFQUDZTTjdiMm5iZWhKL1pFak9Hbm40d2NBQUFRU0REamVtUHBndjJsalRLWXc0YlBPTmtQWlhoUjA1ZGsgNSswYnBCOTdjYjEvU3FGS1VuRFRqRGFQdjJSamIzVCs5cjc0ZllrTVg1ZE5EQUpEYVFXR3dIY2pJMHlHRnpRRFNmWWNBSUQ0d3ZyZSBweWlLMmtHU1pFRTlRU3dvUWRvOGZzdUdudWo4TFgyeGU3T1ZBd0FBU2pYRUFaMENoKzlEVGd5UjVVRlFqYU54bWhQMEovdGg1ckFrIDV3SVJnT2ZXOVQ1TlVkVDJRcEtrWUtaWWJSNi9aVjFQZFA3V3Z0ZzlpUXhmbjIwY05ZN0dTclhLTmVQTUdsYnVNUlVDVFZVTy91c3UgWkZPRFdmTlZ0akVZWHRBTXBOaHpEa1RTcll2WDlVNHJwT2xXUVFqUzV2RmJ2KzZtNW0vdmk5MGR6L0Jqc28yRG9RaGJUNm8vMU9QZyBIeit3cXptNXgxVW96SzB2WVJydGh0ZEpGWDRvMnhnTUwyZ0hVdXk1QnlMcGh4ZC9YVGlTNUwwZ2JSNi9kVzAzZGMyT2djU2llSVlmIG0yMGNERVZZaTRiNGZPNVkwM05UcW93aGtpVGhQY2dKMHVLMHM0TjBadVgwY3YwU1VvVjNaUnVINFFWdElNV2VkNEJLUC96czE3M1QgS1lySyt5bCtYZ3ZTNXZIYjFoeWk1dThjU0N5S005eTRiT1BnaCtYNDdOS0oxdGJHY3IzWFlUTVZ6Qnc0WDJodGJxQzFDdXpWYWVYNiBKV1kxNGNzMkRzTUwybUNLUGErRFNqLzQ0c2ErVTcyQmlFYnVzUTFIM2dyUzV2SGIvbm1JdXNZVFNDek1WWTRTRGZIcGo4WmJmdEZVIGFmQkFPYktudGJraFZXRlV2enFybWx4Y29pYTJaUnNuZlVTU2ZlSFVJMy9jNmovYkc0aG81UjdiZDVHWGdpemQwRm5sN29yYzRBMGsgRnNZWXJpSGJPRWZrV0huZXVKSkhaMWNib1J3U3NIQm1MZTIwYUpmL3NONzhaSW1HMkpwdG5EUXY2UHp4ek5tN0E4a0gvckFsZnlYSiBPMEZjYmwrOVp5QisyOTVnY2xHT2NtUXNHdUtUZVdQTnZ6eTlsdHpsc0puZ1RibEV0RGp0NlZwU3ZiSzUxdnkwUlVOc3lUWU9MNHA0IExNM1AyaHRNL1RSZkpja3JRVnh1MzVpREVmckhCd1pUdDhZWXJpYmJPRU55ekswM1BkRmNaOW9KNVpDZUZxZWRIbU5TZjNKNmpjbGwgMFJDYnM0M0RpeUllVFhPejl3WlRQMzA5RHlYSkcwR095SEY3VnpSOWZaemhzMTR1ZlVTT2o4K29KWi82NFJnemxHTUVhWEhhNlhGbSB6Y281MWVRelZvMWlVN1p4aGlUWkYwejk5UFhOL25uNUpFbGVDSEtNSEZrdmt6NGl4NG81TmFUcm5IRWxPeHcyRTN3Wk9NSzBPTzJwIDhTWGFUMmRWR1JkYk5ZcU4yY2I1bHlTaDFFOWV5eU5KWkJka1NJNURVVVlLT1Q2YVhXMTg1dnlHa3UxUWp0R2p4V2xQVHJSb1Y4NnMgTkQ1bjFlWXN5V20rUEpKRVZrR09saVBHY0xuSm9TVStuRmxsWEh6aGVBdThjc2hBaTlPZW5HVFZmdHBrTnp4bjB5bzJaQnNuM3lTUiBUUkFwNWJCcWlRK2FLZ3pQWFRUQnN0MWhNMlhrR3RQM25SYW5QZUcwNlQ2ZFVXNTQzcVpWck04Mnp0R1MvR25yb1FzM2RYdE5jbzFKIEZrR2tsbU9HM2ZEQ0pST3RVSTQ4b01WcFQwd3UxWDA2dlZ6L2doU1NlQUwwZzMvWnlWM2Q1dkdYeWpHZVVWMExRMUVVL3Z6R1BzZmUgVU9xVy9rVG04bmp1Y3Z6Zk5Mdit4VXNuV2JkQk9mS0hGcWM5MGVieGZ5YUtBTm5XSDc4dmtNek16aVlPTDRwNGhCWm43QWt5V2lCRyBGRzBlL3pzdFR2dW9Wa3dadFNzSVJWRzRhMjNQOUk1QituNS9qTGxPQ2prYXkvVXZYVGJKQnVYSVExcWM5dmpVTXYybmpXWDZsMHExIGluVzV4SW94M0lROW9lU2RxN3NpbzM0bEdSVkJodVRvakRMMzlTY3pseVJaM3B4dHJDRTVwcGJwWDdyY1lkc0s1Y2hmV3B6MmVHT1ogL3RNcHBaSklNbjVQTUhublY0Y2xzWTNXR0VaY0VJcWk4R2VPeUJHazJRdlRXZXhLRytLSUhPOVBMZE8vZElVVHlsRUl0RGp0OFdubCArcyttbHFrWGwrdXhUM0VVeWZwM0ZtTzQ4YnNQUzNMTmFFa3lvdmNnRkVYaHozemRPKzNnditVNGJ0bVk3MHdVUlRKV3JlTDlLV1c2IEpWYzQ0YlNxa0doeDJtT2J1cjJmSzNGTmRMTS9FdzBtTTVkeWdxaklKdGFRSkFnQW9NM2pmN3ZGYVErTVpPNGpKZ2hGVWRpelgvZE8gTzBpbDd3L1M3QVhTeUtGZGN1WGhLMGZSRmtzdVZwcXFIQ2x2SUxJdUl3d3dPL3NCeUZVU2J6QzVFRUdRRVpka1JBUVprcU5EUWprbSBsMnFYWE9rc2hYSVVNQTZiaWZFR0lsdEZjV0RKcm9HY0pXbndCQklMQVFDZ3plTi9xOFZwRDQ1RXpwTGZnMUFVaFMxZTE5dllRYVVmIERLYWtrK09xeVZDT1lzQmhNekZYVFM3ZE9ybFV1OFNxVmJ5ZjR6MUp3NjVBNGk1M1YrUzJwUnM2SzBZaVgwa0Y4UVlpNnQvdkRKN2UgRVVrL0ZFeXg1NmQ1S0Fma1A1RlNrampEamRzVFRON2hIWWd2Y3JsOVdXK1IrQzRrRThRYmlLaVg3K2lmKzFVWDlmaEFpcjBnZHptSSA5NmVVUVRtS2xTRkpwcFJwbDFpMVJLNlNWTzBQcDI3cWpqSUxYVzVmdFpSNVNuSVA0ZzFFMUcvdkhHamUxaGYvZVN6Tm44cUxZdFp4IC95MkgvdnR4UTY1SUFrUVovNC8vTFRKNkFES3lMMllkVVlidVNRQkFsdXpzajROZ2tzMzZuaVNSNFV2YkIxTUxFQVFnTHJmdmxkYm0gaG00cGNzeFpFRzhnb25wbjE4Q1pXL3l4UjJKcHZra0NPZjV2YXBuK1YwY2U1UmFkSE41QVJQL1IzeFpiNHZ3T2dKZ1BBQVJqQWNDKyA1WThucndBaWY2UytOamxXeDl0T05WSVVSWkFrV1ZRcmxZY2tRUUQ0MVk3K09CSk1zcGZrSW9rdm5GcUFBQUJjYnQvTHJjME5QYm5tIGwxT1BERzhnb3ZxckozRG14cDdvTDZOcC9oUkJBamtheTR2dkRUbEZVZmcrNmk5ajlvYy91ckEzdW5rT2swWW1jeHd6RGxGRlQranogQkthbEVJRHVONm5IcktrMzMvaVBFdTA1NjVxcUhHRzV4eVVsM2tCRThUZHZZUHIydnZoOXVVZ0NBQUJhQlJhWVlORXNzK3VWUzFxYiBHM3B6eVN0clFieUJpT3J2M3NBWjY3cWpUMGJUL0hRSjVQaGdXcm4reGN1S1NBNktvbkFmOVhaZCsrREhsL2hqbTgvTkNNbEpMSiswIENTS1gxYmtpTUMyRklScS9YbG0rc1pxOC9JTnl3eFh1cGlwSFJPNXhTb1UzRUZIODNSdVl2cTB2L3ROZ2tyMDRKMGtJTERqUnFsbFcgcmxlKzFOcmM0TTgyVGxhQ2VBTVI1ZnU3ZzJlczdhS2VqbWJSZnVCb2h1U1liamU4MEZKRXEzSTNkWHZKOXVDdkwreU5mWEJ6UmtoTSBaUGxVMW1JY0M0NnFFeGlxOWxzMEU3Nm9Nc3o1M1d6N3o3MGtTUmJGM250dklLSm8yeDJjdHRVZnV6OVhTVFFFRm5MWXRIOHEweWxlIGJHMXU2TXNteGtrTDRnMUVsQi91RFoyKyttRGttUmpEVDVOQWpnOW4yQTNQRjlPUzlWWHRqOWw3b3B0dTY2TFdMdUNGWkxWVVlod0wgZ1dtakJsWFZtaXJ5MHQ4MFdCLzZ5bUV6cGVRZXV4UjRBeEhGKzd1RDA3YjRZdzhFayt4RnVVcml0R21YbGVvVXo3YzJOL1NmN09kUCBTaEJ2SUtKY3NTLzBnMVVka2NVbjI5WHBXSWEyeVo1YVlYanU0aUxaN0VSUkZMYWg3N21KM2JHdjdoNUliTHNrd3lkSGZFRWRoaXJUIEd0enFxU0t2ZktXKzVOWVBtcW9jSjNaamsrZDRBeEhGQjN1Q2pSdDdZdytHY3BSRVRhRGhHbEw5VVdPcDFuV2p3OUpPa3VRSnQ3NDQgWVVIYVBINTlSNFMrK291TzhKMkhtMlhtS0llRytHaFdsWEh4ajRwa215eEZVZGpublhjMjlpZTNQaEdsRC8yQUZWS0cwVG8yaW1BYyBobXA2NjB6TmI5Z04wMStkTy9ieHJLWVQrWVkzRUZHOHNjVS9wb2RLTHd6UzNMVkpsczk2NjYwU1J4TjJyV0xWVkp2MndSOVBML1dkIHFDUW45S0t3emVQWDdRK25ydnQ0ZitpWE1ZYVRRbzRWcDFVYm4vM1JCRXZSVEt1KzZMcTdLc3AwM3h1aE84NGFUVGtBQUVBUWVaemwgNHpVSEkxOHU3S0o4WjNnREViWGM1ME1LSERaVDV1ZXpLL1pOc1dsZkxOY1NmOVlTV05ZUEpCaE8wUFhFbVhrN0Fza1hYdHMrTUphaSBxQlA2N2gvM2g5bzhmdTJCQ0gzZHl2YlFveW1XcnhpdXpmTHhHQ3JxOW9OYTBuWEJlRXZSbE9aWjFmNVlhVWFnYnV1TGI3NkVGeklxIHVmSmcrWlFsRUYvMTgwMmQ4eHNMcGYvRzhTQkpVdmp2R1dWZFRxdm1wWEt0NHM5YUFxT3lQaitDcU9xSk16L2MycC84MVI5M0JNYWMgaUNURC9rQ2J4Ni9wcE9qclYvaUN2NlE1SWFmbThFUGxRTStzTXoxOVhoRVZkZHZVN2RYM3hVTS82Z2gvZmdjbjBGbHZCcE9LRkJlYyBGTXQwUFBYdXZubFo5MUxKTjBpU0ZINDh2ZXpRRkp2bVJidE9Ha2syOXlWZWVYTlhzTzU0a256blA3WjUvT3J1YVByNkQvWUZuMGh6IFFsa3VBenpTbjJQbFdmV21KK2VOTlJlTkhCUkZZWHY3SDU3WVM3WGR6d3AwMXR1SXBVUVVlWXlpRC81QXB5aS9lVlg3WTZPMk5YV2sgSVVsU3VHMWFhZmRVbS9aNXUwN3hGdzJCVXRuR1lnVlIyUjFuNXE3dmpTOTl5eHVxb1NqcU8rL0Z2MVdRTm85ZjVZOHoxLzk5VCtDcCBOQ2ZrZEpLSFdoRE1HMnQrL0t3eHhTTUhBQUJzRDcxaUpuRDhpaVEza0hYL2twR0FGMWxGYjNUVDFUMlJ6V09LWmFvRndHRkpibW0wIDlVd3YweTZ1MENtWGF3ZzA2eWQyckNBcUQ4V1p1V3Q3WXI5OWIyKzQrcnNrK1E5QjJqeCt4VUF5YzhPNzNvRm5HRjZ3NWpJZzdFanogbXZNYlNoNDdzOGlxckZNVWhmVkVOdFYxUjlkZEpZcDgzbjBKazVtQktvSlFYTFk5OUhLSjNMbElDVW1Td2sxVGJEMU41VHBYcFU2NSBYSU5uTHdrbmlJcXVHTlBzN29xKzlvRnZzUExiSlBuR0M2dzJqNThJcDlnRmIrM3FYNXpoaFp5cTJRMzFCTHhvZ3VXUldWVkdUekhKIEFRQUEyME12bXdoQ2VXVXlFNmlTTzVkdlF3UUM1Z3V0K0hHVTlyOVBVVlM0a0Zvdkh3K1NKRVdLb3Z3NGlqeTF2aGNnUFhGbWZvb1Qgak5uRTRnUlIwUmxqenZ6c0lQV0dFa2NYVUJUbFA3cC81YjhFYWZQNGNTck4zYmhzcC84RmxoZXpPdGdRUitUNDRySkoxdFlaRmNYWiA5bXhyNytzV1hzaGNMUUpCOWdMZzN3VXZaUFNrdXZLeTdhR1g5d0VBUW5Mbkl5VkhKT2tqVU9TSmYzYkhrTzQ0TTUvbWhLd2VyL09DIFNIUkdtZE0vMmg5NVU0MmoxMUVVMVQ4a0NRb0FBRzBlUDViSThEZitZVnZ2UzFMSVVhSW12cng2Y3VuRHhTcUhOeEJSbGhvdW1wUmsgQXlPeXpWTktVaGxxZkNqWm50ZU5Nck9GSkVueGlva2wvV2ZWR2grck5pamZWdU5vTE50WXZDZ1NCNlBwMC8rNkovelc1cjZFamFJbyBBQUFBYUp2SGo2UTU0Y2JmYmVsWndnbGlUbzhwajhpeDZvWnBaUTlNS2RNVmJUZlpZT3czZWdVYVBqMmZyeDVESElxdW5qZVlhcThzIHBwdjFveUZKVXJ5a3dSdzRyOTcwU0xWQithNGFSK1BaeHVKRkVlK0lwdWNzMnhYODY3NHdiYVVvQ3VBVnBLTHh2ay8yLzVvWHhKeisgeW1BSXdwV29DZmN0cDlqdkcyTlc3M0hZVENlODNxWFEyTkx6cW9rWE0xZkpuY2VKSUlpY2d0UlVYYkV0dE1RSGlteWFOY1NSNlZaUSBpU00vKzhBM2lIVEdtS3V5TFZBb2lDSitnS0pQZTNOMytIVVVBUzM0bTl2N241SkNEck1HWDMzbnpJcDdLNDJxdmNVc0J3QUF4RE85IENoR0FuRjZjamlZSVFCUUFpRGx0anN0M2prZ1MxdURvUTIvdkRnMUprbFZkQkVFRTJMYSsyQVdMNXhuT1FiZjRZK2ZsbXB3U1I3ZmQgTjZmNnJrcWpxcWl2SEFBY3Z2K1lVSHJmK0VMNndpVXk0YnBRb2wwcGR4NGpEVW1TNHN3S2Zmald4dEw3YXcycTkxUVltc2cybGlBQyBiSFVYMFlLS1ltNlZUZlJLL05BbEUyMi9zMm9WK3h3Mms1aExyRUlneGZoeEhORVcxQnRxaG91WWsyeGZVZDZESEF0SmtzQmgxVVJ1IGJTSmVKVER4WUM2eGZJSFVLVG5mWkNJQXBLdjB5cjd2Z3h5UXdvQWtTYURBd0laNFJzeHAzNzR2UWsvTFdSQVJBRlYzbkNuM0JpSUYgTStXQUZEOFpIc3pVSzVHY1ZoSG9GZGdnaWlBZ3AzdUdWSWEzZjNFZ2RHMkVac2NQUFR1R1FPVEU1ZmJoeTNjSlYvSUNtdE1xaC9GVyA3V2Ewd2FUZW5Fc1FYaFR4T01NM3ZiNng5OEcxUGZHUzRWWkdGZ3NpRUFycVFRUUNFQUZCOHY2VmpTUzQzRDVGaGhmdTJ4OU96VSt4IFBKbHRIQlFCL0JuVnBuZlJDOGZiZm91aFNFNmIvZE9jb091TU1WZjhkVTlvOFpjSG81WmlsbVNjdm9LT0pML2NLWGNlSjROWk0yWmIgTlRtbktBbzZESWZMN1ZPbU9lR2VkZDJ4ZStJTW4vVmplQlFCL0JoU3ZXN0Yzc0FiS0k0aWJ5eHNxbHFFNXk2Si9sQ011ZXJEOWtIWCBpdmFJclZnbElVbFM2RXRzanFJSVhrQmJoUkVXQVhoUlAwUnh1WDNxRk12ZnZhRW5kazh1blpOUkJPSEdrT3ExQzJlVVhiYmtuRG9lIGJYSGF4VUdHVzNicHBOSm5DUlNoYzBtU1BpTEo1eDNVazIzN0JrdUxWUktIN1pwWURUbjNNN256T0JFUWdBb1p3ZnhQcStHdXJKZGcgNURzdXQwK1R6UEFMTi9mRzc0NHhYTmJyNHpBRTRlcU5xalVMSmx1dkdsK2lEcElrZWZnZHlNS1p0UnpEY292bjFwbCtoNk5JVHZWdyBhVTR3SElvelY3dTdvbysvdXlkVVZveVNXTFJqMHhxRmFZL2NlWndJV3NMV014QmJzYnNZNnh3REFJREw3ZFBHTS95ZFcvcmlkMGNaIHJqTGJPQmlDc0hWRzFWZFhUaXk1OXBSeVhZQWtTUURBVVJ1bVdwc2JNaFREdFRwTGRSL21Vb29lZ01PUzlNU1pxOWQyeHg5YjdnM1ogaTAyU1JzczlFU3JWMDRhaGlweXV1S05CdGVtTXYwMnZ2TDJvNnZnTzRYTDc5REdHdTJON1gzeFJOTTFsL2NRS1I1Rk1uVkg1MVkvRyBtUmFjVVczb1Azby95RGNlYlR3K3A1SnVydFRmVzJOUXJzNzU4UzhuR0h2aXpEWHJlK08vV0xZcldGRk1rcEFrS1pnMUU3dXJqTTJmIHlKM0xjS0FJa1dGRjQxcXIvczZpbTE2NTNENUROTTNkdnFNL2NUZVY1ckx1Q1lLalNLYkdvRnc5cjQ2OCtkeDY4aHVicFFBNFJoQ1MgSk1WejYwbi9qSExkN1FZbHZoZVZRSkxlQkROL2MxK2k5WTg3QXBVbldvdW9FS2d4M3hkUkU1TldZS2dpTFhjdTMwV0padnhXbXQyeiB3MkV6NVcyTzJlQnkrNHlSTkhmYnJvSEVvaHpsWUdvTVNuZHpqZkcyaXh2TVBjZktBY0MzN0VrblNWSThaNEsxNTlvcFpiZnBsZmp1IFhBZVRZZzlMc20wZytmQnIyd2VLUnBLbUtrZVM1UStzS3RWTys2ZmN1WHdiR0txa3pacm0xeHZMWHozcGVyVDVqTXZ0SXdkcDloWnYgSUhGWEpNMWwzWEtOUUJHbVdxOWNOYWZTY01jVkUwb09mWnNjQUh4SFZST0h6Y1ROcU5CdnZIaUNaYUVLUjNNdVk1bGlCZEtmeUZ5NyBZeUQxNE8rMkRWUVZpeVFUYk04R0RhcFQzOFpSZGQ1TllXemF5VzVlNlB4SFU1VWo2eFd0K1liTDdUT0ZVK3gvN1E2bUZrVm9yamJiIE9BU0twS3YweW4vTXF0RGZOZDloNmZvdU9RQVlwaTZXdzJiaXlyV3F6UmVQdHo2cUp0Q3MreXNNa1dSNXNpK1p1VzVYSUhYL2I3ZjIgVnhlREpFMVZqZ1NCUmordk1NeHN5NmVwRm9GcFFscmw1TmVtVjcyWjgrOHRYM0M1ZmFaUWlyMTVieWgxVjRSbWE3TStOeWlTcnRRciB2enlsWEhmM0RaT3RCNDlYbzNmWUwybUwwNTZxSmRWdm5UL1c4b1NhUUFkekhlUVJTYTdmTjVoZTlGRUhWVHBpWjNNVU9idm1GVCtwIEdyUEVwRzVZaHlLNDdKVmJDRlFUcXplZi9kdEtRL1dhWXJuM2NMbDk1bUNTdldsZktMVndrR2Jyc28yalFCRzZVcS84WW5xWjlyNmIgcDlvNlRxU0E5WEgvaXJjNDdVbFdFUDQ2bzl6d21vYkFCbklkYkpMbHlVQ0t2WFJ6WCtJYWw5dFg4RFdiU0pMa3g1ZTlzTGRNZDk2TCBHcUpNMW5jakdLcWtTM1dONytHSTdyVzVZeDhQeUgxdXBNRGw5cFVFa3BrYmZlSFVYWU0wVzU5dEhBV0cwQlY2NVJkVGJkb0hibTBzIFBlRVdDQ2MweldsdGJoaXNOV3VlbVYxTnZxd2xzRU81RG5xUVp1dmJ3L1RDZ1dSbWdjdnRzMGgzT3VYQllUUFJ0ZWFidnlvM25QZXkgQXRQSmNsT01vMHFhVk5ldUVoSCsrYXNhbDNmSmZVNmt3T1gyV1FhU21RWHRZWHBocm5MWXRjclBuVmJOUXlmVCtnQ0FrK2lUdm5CbSBMVFdqVFArYnVYWG1wN1VLckRQWHdZZHBkc3lCUVhyaFFDSnpRekZJMGxUbGlGY1lLajZxTmMxOWhVQjFlMUVFSDdVU3F3U21wWXlxIDZwVTJ6WlJIcmhyLzZYNjV6NFVVdU53K3kwQWljOE9CUVhwaG1HYkhaQnRIZ2FFcHUxYjVtY09xL3RtZE04cjJuWXdjQUdUUmdxM04gNHpkNEFvbjVYM1ZGSGtwaytLem5nME9VYUlnRDlTYjFiOHAwaXIrME5qY0VjNDBuTjk1QVJMT2o5OEhtSHVxREJ4aysyc1FKNlJHdCBTYVhFOUgwMjNaVDNEY3FhRjY1cVhONGg5L2lsd09YMldmc1RtZXM2SXZSZDRWVDJjaWd4TkZXbUpUNmJaTkU4Y25kVCtaNXNxa3RtIDlYYTd6ZU0zN2h4SVhMUG1VT1RCUkliUCt0STNSSW1HYUs4enFaZVdGNGtrRkVWaEgzZmNQQzFFZTMrYVpBSS95UENKVWtIa0NDbVAgUVdDYU9Jb29PeXFOTTkrdE1zNThZKzdZeDR2aWlaWEw3YlAySlRMWEhZelFDOE1wTnVzV0RrZmsrSFJDaWVheGUwOHQzNTF0NmRXcyBsMyswZWZ6azl2NzQxZXU2cVFmaUdUNXJ5NGV3YUlqMldsSzF0Rnl2TEFwSkFBQmdWZnRqRmYzeEhWZjZvNXZPWVlUWVZJYUxaNzBNIGV3Z2NWYVZ3Vk5kbFVGYXNxVEpkOHZZWXkwODJPR3ltcE54amxRS1gyMmZ0aXpQWGRWTHBoYUhjNUVpV2FZbFB4NXZWai85a3B0MmIgUzEzaW5OWkh0WG44NU5hKytEVWJlcUkvaldlNG5CdTJIQ1hKOHRibWhxSjRDa05SRkw2UFdsN25EYnpkMHAvWWZnR09xdTBzbjdSayArTVFKRndkSEVaeFZZTG9CQkNHNlZZUnhiNlh4NG85cXlGdFdGVk9QZEpmYlordUxNOWRLSk1mS0JyUDZ5ZnRtMmoyNUZ1M09lUUZoIG04ZHYydXlQWGJhK0ovcmZEQ2RNNVVVeHA1YkhGZzNSWGtPcWx0cUxTQklBRG91eWwvcHpmVGpsbTlsRnJYWkcwMTFOQkthMmlxS28gRUVST0t3TGhHK2NOUmJBa2l1QXBYaEJpQUlCRDVmcXA2OGRaYjExclVNL2I2N0NaaXVidE9BQ0g1ZkRIbVd1N0pKQ2pWRXQ4TXM2ayBmdnIrV2ZaZFVsUzBsMlNGclRjUVViMjljK0RNcmY3NEw2SnBicFlFa3V5dklWWC9VMnlTREVGUkZMNG44cWV4YVg1d1lqSVQxa1hUIGg2d3NuL2hHYjBPOXNpSmcxdFNIbFVSRGoxRjl3VjZIelpSM3kxbWs0Q2c1N2d5bDJLd2JFYWt3TkdIVEVwK01OYW1lZVdCV3hVNnAgMmoxSXRnVGRHNGlvbCsvb1AzTjdYNkkxbXVabVEwa2d4ME5TT1RURUoyTk1xbWNmbkYyeFE4cGVLSkt0aDNMWVRQUzFVOHRXVHkzWCBQV05VNFY5akNKTFRzb3RRaWgzWFJhWHY5TWVaYTExdVgwRlZNb1FjSDhua3dOR0VUVU44WEc5U0xaWmFEZ0FrRkFTQXc1SmNON1hNIFBhVk05NnhSaGErRmtrQytEU25sc0txSkZmV2s2dm1IWmxkc0g0a3VXcEt2cUhYWVRQVDFqV1h1eWFYYTU2QWtrR01aQVRsZWVPaTAgaW0wajFXSnVSSmFjTzJ3bStvWnA1VzVucWZZNWk0WllwY3FocVFrQS81WWtrR1N2V0xxaHMrQVhPSDVma1ZxT09sTDE0c01qS0FjQSBJeVFJQUFBNGJLYlVnbW5sN2xNcjlFOWIxY1JIdVhUK0FlQ3dKQjBSK281dWlqNi96ZVBQcWhjZFJENGtsQ051VlJNZjFaSEtGMzgyIHduSUFjRXlYVzZseDJFd3BpcUxXUEVOelNRQ0FHS0xaaStnc08vOEFBRUF3bVptOEI0Q0ZPSXBrMmp6K2xTMU9lOVk5NlNDang1RTMgNURtLzV6Z2l4NHBhby9KWFB6dXRjaHRKa2lPKy8yWlVLbzFRRklVOTgzWFB0SU1VODVOY0pRRUFBSnRXc1dGS3FlNmw2ZVVHS0VtZSBJOVh5RWEwQ0c3U3FpWStyOUlwZnQ4NnAzRG9hY2dBd1NvSUFjUGpsMkROcmU2WWRqREwzU2lYSjFGTDlTOVBLOVZDU1BHVm80V0ZuIGhNNUpEb01TOTVmcUZPOVZHWlN2UDNCNDRlR283ZHdjMVZwVkZFWGhyclU5MHpvbGtzU3FWV3lZVnFaL3FiRk0vMG1MMDE2VWI1b0wgRlpmYlorbFBaSzd2eUhGVnJrR0orNnVOeWpmclRPcmZ0elkzSEJqdGNZeDZNYmVqSkxrblJMTVhTeURKeHVubCtoZW5sa0pKOG9WLyBiWFk2TEVmV0s3M2xsZ01BR1FRQjROK1NES1RZVy9xVDdJOXlLVGdNQUFCV2pXTFRETHZoaFNtbHVvOWJuUGFpV3NoWGFMamN2cEtCIFpHYkJnY0hDbHdNQW1RUUI0TEFreTd5aCtsMkIxRTJIb3VrRlVralNWR0Y0M21uVGZRSWxrUWVYMjJjT0pETTN0b2R6MnlhYkwzSUEgSUtNZ1E3amN2dnFEVlByV1ExVHVrbGcweE9hWmxjYm5IRmJkeHkxT2UxRnNJaW9VWEc2ZktaaGtiOHExK2tnK3lRSEFDTDRvUEZGYSBteHM2NmtqVjcydEkxVEtERXUvTkpWWW94WjZ5b1NmNjBKNVE4b0kyajE4cjk5aStMd3dWZGN0VkR2Mi81ZmhkUHNnQlFCNElBZ0FBIHJjME5CMnVsazJURzE5M1VRL3RDeWZQYlBQNFJMWmdBT1Z3ck41eGliOTRYeWxVT3pGOURxb2JreUp2aUUza2hDQURma09STmd4TFAgcVFCQk9NWE9XTk5OL1d4L09IVUJsR1RrY0xsOXhrR2EvYTg5b2RTaVhDb2U2cFZZWHkycC9uTWRxY29yT1FESWczdVFZM0c1ZlhVOSBzY3lDQTRPcG0ySk05Z1dLQVFDZ1JFMXNhNjR6dThhWTFDdGFuUGE4YjNaVFNMamNQa01remQzbURTVHV5cVdROUJFNTNxd2xWYjl0IGJXNDRLUGU0amlYdkJBRUFnS1ViT2l2YlE4a3JkZ2VUZDhRWWJud3VzY3hxWXZ2WjllYW5ha24xaWhhbnZTaHExY3FOeSszVFI5UGMgN2JzR0VvdHlhVUdnVjJKOWRhVDZ6Wm84bFFPQVBCVUVBQURhUEg3cjJtN3FxbDBEaVVVU1NMTGovSWFTMitiV203WTViQ2JaQzB3WCBNaTYzVHh0anVEdHk3ZXlrVjJEOWRTYjFzaHBTOWIrdHpRMmRjby9ydThpYmU1QmphWEhhZzNPcXlIZW1sT3ArYlZEaXZseGlEZExzIDFNL2F3MDl1Nm9rNXZZRUlKdmZZQ2hXWDI2ZUpaL2ovemxVT25RTHJyemZudnh3QTVMRWdBQURRNHJTSFRxc2kzNWxhcG44bGQwbTQgczlwMkJ4ZHY3NHREU2JMQTVmYXBreG4rem0xOThaemxHR3RXdjFsdFZQMVB2c3NCUUo0TEFzQmhTV1pYR3Q5cExOTy9vbGZpV1JkbSA1Z1dSQ05QczNIZDJCWjczQnBJT2J5Q1M5MlBQRjVadTZGUWdLTHBnaXo5K1R5N2RaSFVLYkdDc1dmTm1sVkcxdExXNW9TQXEwQmZFIGw2VEZhUS9OcWpTK1BhTmN2MFN2d051empjTUxJakZJczgxcnU2S0xsbTNyVjJVYjUvdUVOeEJCU3pUWXhOVUhCeC9LcFErNVRvRU4gakN2UkxLc3lLbjlUS0hJQVVDQ0NBQUJBaTlNZVByWEMrTTdNU3VLSkVnMjJGYzJ5R0FRdmlJUjNJSEg1bERMdGVIZ1ZPVDdydStPNCBQOGFlRjAxeldiL24wQ3F3UUVPSlpsbWxRZm5yMXVhR25QdkxqQ1lGOVFWcGNkckRGMDlRdkg5S2hlRVJvd3Jibkswa1NaWTNxYkJFIFRUb1RMS2p4eThIZVlBTHJvdWc1Mlg1ZXE4Q0NFeXlhWlJVRzVTdXR6UTNkY28vblpCblJQZWtqUVZPVkkrNE5SUDRCQU1wdjdJaysgSGszek00UXNxamgyeDRoR2lzRStsbnM4K2M3ZVlCSVRBWmlXeldlMUJCYWNhTkg4cVZ5dlhOTGEzSkRURWlLNUtNaS9vQTZiS1gybCAwN1o2ZHBYeFVhTUsyNG9peUVsWHRqQ3AyTzRLUFN1ZTdPZStiMWkxQ3RHc0prNjZyWnlHd0VLVGJOby9sZXVWdnlwVU9RQW9VRUVBIE9DekpaUTdiVjNPcXlWOFlsU2N2Q2NzaEc4Y2FWU05hTXFZWW1HRFY4ZlZtemRhVCtZeUd3TUpPbS9aUFpUckZTNjNORFFYZDJLZGcgQlFIZ3NDU1hUckorZFVhZHFkV2d4TGFmcUNTTlpicFBCbW5za0VWcFBLbCtkZDlIR3N0MVhMVlJlY0pUVVRXQkRrNHUxYjVScWxPOCAwTnJjMENkMy9ybFMwSUlBQUlERFptSXVtbUQ1NTFuMXBvY01TbXdIaW9CaEpWSGphR0pxdWY0UEUwdDFLWklrNVU0Lzc2a3dLSGdjIFJkYk9yQ0tYSCs5bjFUZzZPTFZNLzRaTnEzaXV0YmxCbG02L1VsUHdnZ0J3V0pJTHhsdldPS3lhbTJaV0d2OVhoYVBmMm5scGpGbTkgZFc2OWFXR0ZRZmw1dlZrTjEyU2RBQTZiU1l4bmhNRUtnL0xSMmRYa245VTQraC9ibVZFRThHWTFzZi9zK3BKSHJScmkyV0pxVjVHMyBpeFd6Z2FJbzlOVWRRYk1BeEJrcFRwd25pa0RQc0x4UmdhTnhzNXJaRlV3aW41NVJaKzJ1SVZXMHcyYUNOK2dud2RJTm5TakQ4YVdCIGVIcXNVYVdZbCtTRVVnQUFRQkhBcWpIMEFFVm52cHhWWlRwWWJKVmxpa3FRSWJ5QmlHTHRvWmlXNVVVc25tWlJyUklYSnR2U2FTMGggSkp1cUhGQ01MS0VvQ3ZRa09IelBJS01MMEN3T0FBQTRpb2hsR2lKelpvVW1lYkk5eUNFUUNBUUNnVUFnRUFnRUFvRkFJQkFJQkFLQiBRQ0FRQ0NRditYOXpNV0ZqWkNMYm5nQUFBQ1YwUlZoMFpHRjBaVHBqY21WaGRHVUFNakF5TUMwd055MHhNRlF3T0Rvek9Ub3lNQ3N3IE16b3dNSzVnRU04QUFBQWxkRVZZZEdSaGRHVTZiVzlrYVdaNUFESXdNakF0TURjdE1UQlVNRGc2TXprNk1qQXJNRE02TUREZlBhaHogQUFBQUFFbEZUa1N1UW1DQyIvPiYjeGE7PC9zdmc+;" vertex="1" parent="1">
          <mxGeometry x="1050" y="316.5" width="35" height="35" as="geometry" />
        </mxCell>
        <mxCell id="EMYNUx44aLwSDeEjnDvy-15" value="Use" style="endArrow=open;endSize=12;dashed=1;html=1;rounded=0;exitX=0.5;exitY=1;exitDx=0;exitDy=0;labelBackgroundColor=#DAE8FC;fontSize=10;entryX=0.5;entryY=0;entryDx=0;entryDy=0;" edge="1" parent="1" source="EMYNUx44aLwSDeEjnDvy-14" target="EMYNUx44aLwSDeEjnDvy-13">
          <mxGeometry x="0.1241" width="160" relative="1" as="geometry">
            <mxPoint x="1138" y="362" as="sourcePoint" />
            <mxPoint x="1137" y="432" as="targetPoint" />
            <mxPoint as="offset" />
          </mxGeometry>
        </mxCell>
        <mxCell id="EMYNUx44aLwSDeEjnDvy-16" value="Use" style="endArrow=open;endSize=12;dashed=1;html=1;rounded=0;entryX=0;entryY=0.5;entryDx=0;entryDy=0;exitX=1;exitY=0.5;exitDx=0;exitDy=0;labelBackgroundColor=#DAE8FC;fontSize=10;" edge="1" parent="1" source="t-lk_YIIwEsfysXy30gr-26" target="EMYNUx44aLwSDeEjnDvy-14">
          <mxGeometry x="0.1357" width="160" relative="1" as="geometry">
            <mxPoint x="949" y="432" as="sourcePoint" />
            <mxPoint x="948.5" y="367" as="targetPoint" />
            <mxPoint as="offset" />
            <Array as="points">
              <mxPoint x="1020" y="442" />
              <mxPoint x="1020" y="334" />
            </Array>
          </mxGeometry>
        </mxCell>
      </root>
    </mxGraphModel>
  </diagram>
</mxfile>
